<svg xmlns="http://www.w3.org/2000/svg" viewBox="0 0 512 512">
  <rect width="512" height="512" rx="100" fill="#5865F2"/>
  <path fill="#FFFFFF" d="M339.2 176.4c-18.4-8.4-38.2-14.4-59-17.4-2.6 4.6-5.3 10-7.2 14.6-21.2-3.2-42.6-3.2-63.6 0-2-4.6-4.6-10-7.2-14.6-20.8 3-40.6 9-59 17.4-37.2 54.2-47.4 106.6-42.4 158 25.2 18.8 49.4 30.2 73.2 37.6 6-8.2 11.2-16.8 15.8-26-8.8-3.2-17.2-7.4-25-12.6 2-1.4 4.2-3 6-4.6 47.4 22 99 22 146.2 0 2 1.6 4 3.2 6 4.6-7.8 5.2-16.2 9.4-25 12.6 4.6 9.2 9.8 17.8 15.8 26 23.8-7.4 48-18.8 73.2-37.6 6.4-63.6-10.8-115.8-42-158zM210.6 304c-11.6 0-21-10.6-21-23.8 0-13.2 9.4-23.8 21-23.8s21 10.6 21 23.8c0 13.2-9.4 23.8-21 23.8zm90.8 0c-11.6 0-21-10.6-21-23.8 0-13.2 9.4-23.8 21-23.8s21 10.6 21 23.8c0 13.2-9.4 23.8-21 23.8z"/>
</svg>
