<?xml version="1.0" encoding="UTF-8"?>
<svg version="1.1" xmlns="http://www.w3.org/2000/svg" width="531" height="393">
<path d="M0 0 C175.23 0 350.46 0 531 0 C531 129.69 531 259.38 531 393 C355.77 393 180.54 393 0 393 C0 263.31 0 133.62 0 0 Z " fill="#171717" transform="translate(0,0)"/>
<path d="M0 0 C63.69 0 127.38 0 193 0 C193 79.86 193 159.72 193 242 C161.32 242 129.64 242 97 242 C95.24795122 240.24795122 95.856261 237.79377345 95.84178162 235.41294861 C95.8319928 234.19993576 95.82220398 232.98692291 95.81211853 231.7371521 C95.80621358 230.38067666 95.80040319 229.02420081 95.79467773 227.66772461 C95.78510451 226.248873 95.77509477 224.83002427 95.76467896 223.41117859 C95.73756355 219.54774306 95.71659005 215.68429522 95.69667697 211.82081676 C95.67485819 207.78754971 95.64744947 203.75432086 95.62062073 199.72108459 C95.5706381 192.07837302 95.52572002 184.4356403 95.48259836 176.79288727 C95.42405818 166.46890784 95.35774151 156.1449786 95.29184818 145.82104397 C95.1881864 129.54739642 95.09495521 113.27370607 95 97 C63.32 96.67 31.64 96.34 -1 96 C-1.020625 80.53125 -1.04125 65.0625 -1.0625 49.125 C-1.071604 44.23574707 -1.08070801 39.34649414 -1.09008789 34.30908203 C-1.09460449 28.35131836 -1.09460449 28.35131836 -1.09544373 25.56466675 C-1.09698207 23.61308566 -1.10050478 21.66150553 -1.10557556 19.70993042 C-1.1128625 16.75858909 -1.11390709 13.80730597 -1.11352539 10.85595703 C-1.1171235 9.98252718 -1.12072161 9.10909733 -1.12442875 8.20919991 C-1.11402634 2.22805267 -1.11402634 2.22805267 0 0 Z " fill="#FEFEFE" transform="translate(32,86)"/>
<path d="M0 0 C1.33347725 -0.002062 1.33347725 -0.002062 2.69389343 -0.00416565 C3.66133987 -0.00057037 4.62878632 0.0030249 5.62554932 0.00672913 C6.65025833 0.0065831 7.67496735 0.00643707 8.73072815 0.00628662 C12.11789059 0.00698331 15.50499804 0.01476437 18.89215088 0.02259827 C21.24055959 0.02446331 23.58896869 0.02588681 25.93737793 0.02688599 C32.11874465 0.03070436 38.30008788 0.04052887 44.48144531 0.05158997 C50.78891685 0.06181868 57.09639219 0.06638674 63.40386963 0.07142639 C75.78018203 0.08215172 88.156477 0.09922002 100.53277588 0.12025452 C101.14996338 1.94447327 101.14996338 1.94447327 101.53277588 4.12025452 C100.19944255 6.12025452 98.86610921 8.12025452 97.53277588 10.12025452 C97.15146848 12.44622963 96.80817334 14.77937609 96.53277588 17.12025452 C95.87277588 17.45025452 95.21277588 17.78025452 94.53277588 18.12025452 C94.13846947 20.01083657 94.13846947 20.01083657 94.03277588 22.24525452 C93.64202201 26.46943863 92.99853071 30.13014413 91.53277588 34.12025452 C90.54277588 34.78025452 89.55277588 35.44025452 88.53277588 36.12025452 C88.18935139 37.45102441 87.85657714 38.7845743 87.53277588 40.12025452 C86.55427393 41.14130003 85.55297161 42.14086661 84.53277588 43.12025452 C83.35702877 45.22015104 83.35702877 45.22015104 82.53277588 47.12025452 C81.54277588 47.12025452 80.55277588 47.12025452 79.53277588 47.12025452 C79.56758057 47.79572327 79.60238525 48.47119202 79.63824463 49.16712952 C79.66531494 50.05916077 79.69238525 50.95119202 79.72027588 51.87025452 C79.75508057 52.75197327 79.78988525 53.63369202 79.82574463 54.54212952 C79.47899668 57.59351148 78.48129663 58.80701065 76.53277588 61.12025452 C76.19050171 62.45132074 75.85525845 63.78425531 75.53277588 65.12025452 C74.54277588 65.61525452 74.54277588 65.61525452 73.53277588 66.12025452 C72.84346244 68.46933327 72.84346244 68.46933327 72.40777588 71.18275452 C72.15640869 72.56140686 72.15640869 72.56140686 71.89996338 73.96791077 C71.7787915 74.6781842 71.65761963 75.38845764 71.53277588 76.12025452 C70.87277588 76.12025452 70.21277588 76.12025452 69.53277588 76.12025452 C69.56758057 76.86791077 69.60238525 77.61556702 69.63824463 78.38587952 C69.66531494 79.37072327 69.69238525 80.35556702 69.72027588 81.37025452 C69.75508057 82.34478577 69.78988525 83.31931702 69.82574463 84.32337952 C69.48894901 87.53865501 68.62220662 88.72186034 66.53277588 91.12025452 C65.19563283 93.94311207 64.50987555 96.26910665 64.03277588 99.37025452 C63.86777588 100.27775452 63.70277588 101.18525452 63.53277588 102.12025452 C62.54277588 102.61525452 62.54277588 102.61525452 61.53277588 103.12025452 C61.02740165 104.73745204 60.53315208 106.35930688 60.10699463 107.99916077 C59.08875867 111.76039971 57.78715777 115.43237175 56.53277588 119.12025452 C55.87277588 119.12025452 55.21277588 119.12025452 54.53277588 119.12025452 C54.37808838 121.00744202 54.37808838 121.00744202 54.22027588 122.93275452 C53.92485186 126.53692759 53.07742148 127.64455252 50.53277588 130.12025452 C49.38788638 132.43973742 49.38788638 132.43973742 48.47027588 134.99525452 C48.14929932 135.83830139 47.82832275 136.68134827 47.49761963 137.54994202 C47.17922119 138.39814514 46.86082275 139.24634827 46.53277588 140.12025452 C46.17312744 140.96459045 45.813479 141.80892639 45.44293213 142.67884827 C44.58055093 144.99210255 44.22200441 146.86197578 44.03277588 149.30775452 C43.53277588 153.12025452 43.53277588 153.12025452 41.53277588 155.12025452 C40.74446301 157.11316591 40.74446301 157.11316591 40.09527588 159.37025452 C38.88818654 163.17349581 37.34981798 166.56188039 35.53277588 170.12025452 C34.99941851 171.55315491 34.4790059 172.99092673 33.97027588 174.43275452 C32.53277588 178.12025452 32.53277588 178.12025452 30.53277588 179.12025452 C30.06754525 181.01558793 30.06754525 181.01558793 29.90777588 183.18275452 C29.72215088 185.13181702 29.72215088 185.13181702 29.53277588 187.12025452 C28.54277588 187.12025452 27.55277588 187.12025452 26.53277588 187.12025452 C26.53277588 190.42025452 26.53277588 193.72025452 26.53277588 197.12025452 C25.54277588 197.12025452 24.55277588 197.12025452 23.53277588 197.12025452 C23.20277588 199.10025452 22.87277588 201.08025452 22.53277588 203.12025452 C21.54277588 203.12025452 20.55277588 203.12025452 19.53277588 203.12025452 C19.45027588 204.17212952 19.36777588 205.22400452 19.28277588 206.30775452 C18.46447956 210.46742749 17.30244209 212.01487119 14.53277588 215.12025452 C12.88477674 217.77536425 12.25660058 220.28609205 11.59527588 223.30775452 C11.24465088 224.56587952 10.89402588 225.82400452 10.53277588 227.12025452 C9.54277588 227.45025452 8.55277588 227.78025452 7.53277588 228.12025452 C5.61241071 231.96098486 4.72089128 235.96185063 3.53277588 240.12025452 C-32.76722412 240.12025452 -69.06722412 240.12025452 -106.46722412 240.12025452 C-106.46722412 231.12025452 -106.46722412 231.12025452 -104.46722412 229.12025452 C-104.32284912 228.15087952 -104.17847412 227.18150452 -104.02972412 226.18275452 C-103.40040973 222.75648726 -102.81502356 222.43870647 -100.46722412 220.12025452 C-99.54691513 218.32823949 -99.54691513 218.32823949 -98.90472412 216.37025452 C-98.65980225 215.67416077 -98.41488037 214.97806702 -98.16253662 214.26087952 C-97.17918131 211.23347104 -96.29935589 208.19274103 -95.46722412 205.12025452 C-94.80722412 205.12025452 -94.14722412 205.12025452 -93.46722412 205.12025452 C-93.46722412 202.48025452 -93.46722412 199.84025452 -93.46722412 197.12025452 C-92.80722412 196.79025452 -92.14722412 196.46025452 -91.46722412 196.12025452 C-90.73091696 194.21254959 -90.00152389 192.30168669 -89.31878662 190.37416077 C-87.97457619 186.81631939 -86.21332015 183.49371204 -84.46722412 180.12025452 C-83.93097412 179.02712952 -83.39472412 177.93400452 -82.84222412 176.80775452 C-81.46722412 174.12025452 -81.46722412 174.12025452 -79.46722412 171.12025452 C-79.00115827 169.45573361 -78.53760407 167.79042933 -78.09222412 166.12025452 C-77.42142661 163.97370247 -76.54957363 162.02962222 -75.59222412 159.99525452 C-72.93937807 154.23251778 -71.2586976 148.19276086 -69.46722412 142.12025452 C-68.46722412 139.12025452 -68.46722412 139.12025452 -67.02972412 137.87025452 C-65.15036961 135.76537746 -64.76953624 133.76546865 -64.04510498 131.08607483 C-62.89944316 127.18879179 -61.23822472 123.47141933 -59.67816162 119.72572327 C-58.41030089 116.63291149 -57.3176382 113.59533396 -56.40081787 110.37806702 C-55.64662388 107.74627709 -54.94106047 105.79646961 -53.52972412 103.49525452 C-52.84909912 102.38150452 -52.16847412 101.26775452 -51.46722412 100.12025452 C-50.95159912 99.31587952 -50.43597412 98.51150452 -49.90472412 97.68275452 C-48.37184939 94.95023869 -47.34213015 92.24170292 -46.28753662 89.29994202 C-45.41598037 86.98409256 -44.42854627 84.74766324 -43.40472412 82.49525452 C-41.86593687 79.0934145 -40.56675977 75.69374536 -39.46722412 72.12025452 C-38.80722412 72.12025452 -38.14722412 72.12025452 -37.46722412 72.12025452 C-37.36409912 71.48087952 -37.26097412 70.84150452 -37.15472412 70.18275452 C-35.95174765 64.82404114 -34.52625312 59.70879802 -31.46722412 55.12025452 C-30.97222412 53.60431702 -30.97222412 53.60431702 -30.46722412 52.05775452 C-29.46722412 49.12025452 -29.46722412 49.12025452 -27.46722412 47.12025452 C-27.20847858 45.11497655 -26.95356717 43.10868502 -26.75238037 41.09681702 C-26.42216011 38.80789298 -25.69073166 37.07786658 -24.46722412 35.12025452 C-23.80722412 35.12025452 -23.14722412 35.12025452 -22.46722412 35.12025452 C-22.34218506 34.55951233 -22.217146 33.99877014 -22.08831787 33.42103577 C-21.41966091 30.94406124 -20.5176161 28.67496737 -19.52972412 26.30775452 C-17.89047543 22.2841441 -16.56326032 18.32172661 -15.46722412 14.12025452 C-14.80722412 14.12025452 -14.14722412 14.12025452 -13.46722412 14.12025452 C-13.13722412 11.81025452 -12.80722412 9.50025452 -12.46722412 7.12025452 C-11.47722412 7.12025452 -10.48722412 7.12025452 -9.46722412 7.12025452 C-9.13722412 5.14025452 -8.80722412 3.16025452 -8.46722412 1.12025452 C-5.57192406 0.29163383 -3.00765544 -0.00359767 0 0 Z " fill="#FEFEFE" transform="translate(404.46722412109375,86.87974548339844)"/>
<path d="M0 0 C0.86286621 -0.01063477 1.72573242 -0.02126953 2.61474609 -0.03222656 C8.07972445 0.08765174 12.20479719 1.20638905 17.09350586 3.64990234 C19.28899979 4.78923637 19.28899979 4.78923637 22.6875 5.875 C27.95619467 8.60691575 32.16722193 12.93916578 34.0625 18.625 C35.2071875 19.24375 35.2071875 19.24375 36.375 19.875 C42.07725348 23.58809529 43.84240212 30.4933011 46.0625 36.625 C46.3925 36.955 46.7225 37.285 47.0625 37.625 C47.31498182 41.22212337 47.24772846 44.83256599 47.25 48.4375 C47.26224609 49.44876953 47.27449219 50.46003906 47.28710938 51.50195312 C47.28904297 52.47712891 47.29097656 53.45230469 47.29296875 54.45703125 C47.29707764 55.35139893 47.30118652 56.2457666 47.30541992 57.16723633 C47.04892092 59.76238757 46.37442779 61.3927404 45.0625 63.625 C44.4025 63.625 43.7425 63.625 43.0625 63.625 C42.959375 64.511875 42.85625 65.39875 42.75 66.3125 C41.91699597 70.32606487 40.53135411 73.16011577 37.6171875 76.06640625 C36.10067933 77.58672474 34.86705293 79.17271751 33.5625 80.875 C28.56319314 86.70545713 21.86585487 91.71190256 14.0625 92.4375 C13.36125 92.44394531 12.66 92.45039063 11.9375 92.45703125 C9.7250286 92.50458019 9.7250286 92.50458019 7.0625 94.625 C3.6640625 94.890625 3.6640625 94.890625 -0.3125 94.875 C-2.27316406 94.88273437 -2.27316406 94.88273437 -4.2734375 94.890625 C-7.71516612 94.64111802 -9.82777802 93.98845314 -12.9375 92.625 C-15.27903262 92.28775799 -17.58986284 92.12736216 -19.94921875 91.96875 C-21.9375 91.625 -21.9375 91.625 -23.9375 89.625 C-24.535625 89.521875 -25.13375 89.41875 -25.75 89.3125 C-28.98491946 88.29581103 -30.72302078 86.07316799 -32.9375 83.625 C-33.65679687 82.8515625 -34.37609375 82.078125 -35.1171875 81.28125 C-45.00062287 70.52288756 -49.52414977 62.26963399 -49.125 47.5625 C-49.11146484 46.60150391 -49.09792969 45.64050781 -49.08398438 44.65039062 C-49.04902306 42.30798248 -48.99996104 39.96680844 -48.9375 37.625 C-48.2775 37.625 -47.6175 37.625 -46.9375 37.625 C-46.91171875 36.97273438 -46.8859375 36.32046875 -46.859375 35.6484375 C-46.29756629 26.99147601 -43.27511679 22.52045748 -36.9375 16.625 C-35.1653785 15.11889232 -33.38719857 13.62350946 -31.5859375 12.15234375 C-29.85256899 10.672279 -29.85256899 10.672279 -28.65625 8.64453125 C-22.24389497 1.11001408 -9.18169627 0.05547853 0 0 Z " fill="#FCFCFC" transform="translate(298.9375,82.375)"/>
<path d="M0 0 C25.24264452 -0.02333713 50.48528743 -0.04098319 75.72794056 -0.05181217 C87.44794385 -0.05697339 99.16794045 -0.06401279 110.88793945 -0.07543945 C121.10040675 -0.08539158 131.3128692 -0.0918547 141.52534121 -0.09408849 C146.93516718 -0.0953947 152.34497927 -0.09847488 157.7548008 -0.10573006 C162.84280469 -0.1124986 167.93078895 -0.11461525 173.01879692 -0.11310768 C174.88971691 -0.11338363 176.76063754 -0.11538382 178.63155365 -0.11920547 C181.17914225 -0.1241557 183.72665601 -0.12299332 186.27424622 -0.12025452 C187.39340438 -0.12462378 187.39340438 -0.12462378 188.53517181 -0.12908131 C191.63493369 -0.12002849 194.03494376 0.01164792 197 1 C197.02280271 31.7612812 197.04050457 62.52256046 197.05106533 93.28384809 C197.05231607 96.91384145 197.05361039 100.54383479 197.05493164 104.17382812 C197.05532511 105.25784742 197.05532511 105.25784742 197.05572652 106.3637661 C197.06008021 118.07194586 197.06796612 129.78012071 197.0771528 141.48829755 C197.08649768 153.49808835 197.09205739 165.50787658 197.09408849 177.51767087 C197.0953386 184.26500736 197.09835039 191.01233362 197.10573006 197.75966644 C197.11249978 204.10592177 197.114615 210.45216136 197.11310768 216.79841995 C197.11338358 219.13172364 197.11538306 221.46502783 197.11920547 223.7983284 C197.12415753 226.97614718 197.12299262 230.153906 197.12025452 233.33172607 C197.12462378 234.72666326 197.12462378 234.72666326 197.12908131 236.14978099 C197.12709026 237.00072691 197.12509921 237.85167284 197.12304783 238.728405 C197.12342755 239.46202468 197.12380727 240.19564435 197.1241985 240.95149493 C196.99540649 243.07576449 196.58047549 244.95661329 196 247 C183.38731588 247.02313205 170.77463678 247.04091951 158.16193581 247.05181217 C152.30586627 247.0570391 146.44981121 247.06413333 140.59375 247.07543945 C134.9463016 247.08627504 129.29886714 247.09227827 123.65140915 247.09487724 C121.49275874 247.09673027 119.33410913 247.10034857 117.17546463 247.10573006 C114.16074195 247.11294936 111.14607753 247.11399056 108.13134766 247.11352539 C106.78160103 247.1189183 106.78160103 247.1189183 105.40458679 247.12442017 C99.22810432 247.11405216 99.22810432 247.11405216 97 246 C97 197.49 97 148.98 97 99 C65.58605644 99.4872395 65.58605644 99.4872395 34.17285156 100.01855469 C28.09716797 100.10009766 28.09716797 100.10009766 25.25286865 100.13311768 C23.26626305 100.16001808 21.2797561 100.19492643 19.293396 100.23614502 C16.28439163 100.29702984 13.27605268 100.33249616 10.26660156 100.36230469 C8.93914602 100.39794588 8.93914602 100.39794588 7.5848732 100.4343071 C3.93557559 100.44728659 1.65071064 100.37409011 -1.55078125 98.53356934 C-3.71606549 94.74815203 -3.52705357 91.39157419 -3.45410156 87.10058594 C-3.45497772 85.75371704 -3.45497772 85.75371704 -3.45587158 84.37963867 C-3.45308668 81.41415641 -3.42197534 78.44968149 -3.390625 75.484375 C-3.38316406 73.42743479 -3.37747044 71.37048746 -3.37347412 69.3135376 C-3.35820628 63.90137078 -3.31891426 58.48963379 -3.2746582 53.07763672 C-3.23373049 47.55442113 -3.21546843 42.03113604 -3.1953125 36.5078125 C-3.15242136 25.67168622 -3.08415587 14.83587886 -3 4 C-2.34 4 -1.68 4 -1 4 C-0.67 2.68 -0.34 1.36 0 0 Z M2 2 C0.31932234 5.36135533 0.87124895 9.15997493 0.88647461 12.85595703 C0.88635407 13.78794355 0.88623354 14.71993008 0.88610935 15.68015862 C0.88685755 18.70606727 0.89448156 21.73191482 0.90234375 24.7578125 C0.90381346 26.62231415 0.90483399 28.48681621 0.90539551 30.35131836 C0.91064505 37.27588519 0.92460617 44.20044319 0.9375 51.125 C0.958125 66.59375 0.97875 82.0625 1 98 C32.68 98.33 64.36 98.66 97 99 C97.06058594 109.38339844 97.12117188 119.76679688 97.18359375 130.46484375 C97.22406408 137.02279049 97.26478407 143.58073408 97.30664062 150.13867188 C97.37310535 160.55947366 97.43851834 170.9802748 97.49731445 181.40112305 C97.54013209 188.98916313 97.58640386 196.5771728 97.63687855 204.16516596 C97.66349907 208.18545333 97.68835254 212.20573459 97.70907402 216.22605705 C97.72860982 220.00576939 97.75274422 223.78542375 97.78049088 227.56508446 C97.78987757 228.9562907 97.79754699 230.34750968 97.80341911 231.7387352 C97.8116528 233.63016497 97.82651843 235.5215625 97.84178162 237.41294861 C97.84823417 238.47393233 97.85468672 239.53491606 97.8613348 240.6280508 C97.73374161 242.95528636 97.73374161 242.95528636 99 244 C130.68 244 162.36 244 195 244 C195 164.14 195 84.28 195 2 C131.31 2 67.62 2 2 2 Z " fill="#565656" transform="translate(30,84)"/>
<path d="M0 0 C63.69 0 127.38 0 193 0 C193 79.86 193 159.72 193 242 C161.32 242 129.64 242 97 242 C95.24795122 240.24795122 95.856261 237.79377345 95.84178162 235.41294861 C95.8319928 234.19993576 95.82220398 232.98692291 95.81211853 231.7371521 C95.80621358 230.38067666 95.80040319 229.02420081 95.79467773 227.66772461 C95.78510451 226.248873 95.77509477 224.83002427 95.76467896 223.41117859 C95.73756355 219.54774306 95.71659005 215.68429522 95.69667697 211.82081676 C95.67485819 207.78754971 95.64744947 203.75432086 95.62062073 199.72108459 C95.5706381 192.07837302 95.52572002 184.4356403 95.48259836 176.79288727 C95.42405818 166.46890784 95.35774151 156.1449786 95.29184818 145.82104397 C95.1881864 129.54739642 95.09495521 113.27370607 95 97 C63.32 96.67 31.64 96.34 -1 96 C-1.020625 80.53125 -1.04125 65.0625 -1.0625 49.125 C-1.071604 44.23574707 -1.08070801 39.34649414 -1.09008789 34.30908203 C-1.09460449 28.35131836 -1.09460449 28.35131836 -1.09544373 25.56466675 C-1.09698207 23.61308566 -1.10050478 21.66150553 -1.10557556 19.70993042 C-1.1128625 16.75858909 -1.11390709 13.80730597 -1.11352539 10.85595703 C-1.1171235 9.98252718 -1.12072161 9.10909733 -1.12442875 8.20919991 C-1.11402634 2.22805267 -1.11402634 2.22805267 0 0 Z M0 3 C-0.09521025 5.83044221 -0.12552324 8.6363167 -0.11352539 11.46704102 C-0.11364593 12.36917045 -0.11376646 13.27129988 -0.11389065 14.20076656 C-0.11314134 17.13517112 -0.1055123 20.06951299 -0.09765625 23.00390625 C-0.09618689 24.80985483 -0.09516614 26.61580384 -0.09460449 28.42175293 C-0.08935096 35.13534176 -0.07538989 41.84892149 -0.0625 48.5625 C-0.041875 63.556875 -0.02125 78.55125 0 94 C32.01 94.33 64.02 94.66 97 95 C97.33 142.85 97.66 190.7 98 240 C129.02 240 160.04 240 192 240 C192 161.46 192 82.92 192 2 C160.505625 1.979375 129.01125 1.95875 96.5625 1.9375 C86.60006104 1.928396 76.63762207 1.91929199 66.37329102 1.90991211 C57.48113268 1.90656869 57.48113268 1.90656869 48.588974 1.90455627 C44.61317899 1.90362064 40.63739719 1.89985742 36.66160583 1.89442444 C31.6003405 1.88759906 26.53909456 1.88550255 21.47782505 1.88692772 C19.61403002 1.88662943 17.75023435 1.88462668 15.88644326 1.88078487 C13.38138815 1.87585847 10.87640978 1.87699248 8.37135315 1.87974548 C7.63130507 1.87683282 6.891257 1.87392015 6.12878323 1.87091923 C2.77963046 1.58585499 2.77963046 1.58585499 0 3 Z " fill="#A7A7A7" transform="translate(32,86)"/>
<path d="M0 0 C0.33 0 0.66 0 1 0 C1.02280271 30.7612812 1.04050457 61.52256046 1.05106533 92.28384809 C1.05231607 95.91384145 1.05361039 99.54383479 1.05493164 103.17382812 C1.05519395 103.89650766 1.05545626 104.61918719 1.05572652 105.3637661 C1.06008021 117.07194586 1.06796612 128.78012071 1.0771528 140.48829755 C1.08649768 152.49808835 1.09205739 164.50787658 1.09408849 176.51767087 C1.0953386 183.26500736 1.09835039 190.01233362 1.10573006 196.75966644 C1.11249978 203.10592177 1.114615 209.45216136 1.11310768 215.79841995 C1.11338358 218.13172364 1.11538306 220.46502783 1.11920547 222.7983284 C1.12415753 225.97614718 1.12299262 229.153906 1.12025452 232.33172607 C1.12316736 233.2616842 1.1260802 234.19164232 1.12908131 235.14978099 C1.12709026 236.00072691 1.12509921 236.85167284 1.12304783 237.728405 C1.12342755 238.46202468 1.12380727 239.19564435 1.1241985 239.95149493 C0.99540649 242.07576449 0.58047549 243.95661329 0 246 C-12.61268412 246.02313205 -25.22536322 246.04091951 -37.83806419 246.05181217 C-43.69413373 246.0570391 -49.55018879 246.06413333 -55.40625 246.07543945 C-61.0536984 246.08627504 -66.70113286 246.09227827 -72.34859085 246.09487724 C-74.50724126 246.09673027 -76.66589087 246.10034857 -78.82453537 246.10573006 C-81.83925805 246.11294936 -84.85392247 246.11399056 -87.86865234 246.11352539 C-89.21839897 246.1189183 -89.21839897 246.1189183 -90.59541321 246.12442017 C-96.77189568 246.11405216 -96.77189568 246.11405216 -99 245 C-99 196.49 -99 147.98 -99 98 C-98.67 98 -98.34 98 -98 98 C-97.67 145.52 -97.34 193.04 -97 242 C-65.32 242.33 -33.64 242.66 -1 243 C-0.67 162.81 -0.34 82.62 0 0 Z " fill="#3D3D3D" transform="translate(226,85)"/>
<path d="M0 0 C1.24523768 0.00081715 1.24523768 0.00081715 2.51563168 0.00165081 C3.46773525 -0.00254368 4.41983883 -0.00673817 5.40079403 -0.01105976 C6.97260181 -0.0026305 6.97260181 -0.0026305 8.57616329 0.00596905 C10.22742214 0.00312153 10.22742214 0.00312153 11.91203976 0.00021648 C15.56504506 -0.0035001 19.21785328 0.00722488 22.87084103 0.01842022 C25.39907463 0.01961155 27.92730869 0.02006528 30.45554256 0.01980877 C35.75928882 0.02137512 41.06296617 0.02943528 46.36669064 0.04307842 C52.5060735 0.05881243 58.64539377 0.06407627 64.78479534 0.06334287 C70.68266053 0.06273338 76.58050761 0.06793881 82.47836781 0.07613468 C84.99230926 0.07932795 87.50625258 0.08129028 90.02019596 0.08202839 C93.52586337 0.08418451 97.03145049 0.09291266 100.53710079 0.1036253 C101.58699688 0.10317211 102.63689297 0.10271893 103.71860409 0.10225201 C104.66788784 0.10651699 105.61717159 0.11078197 106.59522152 0.1151762 C107.42500295 0.11685205 108.25478437 0.11852789 109.10971069 0.12025452 C110.99193478 0.24888897 110.99193478 0.24888897 111.99193478 1.24888897 C112.13308639 3.91947748 112.03440585 6.57321135 111.99193478 9.24888897 C111.00193478 9.24888897 110.01193478 9.24888897 108.99193478 9.24888897 C108.66193478 12.21888897 108.33193478 15.18888897 107.99193478 18.24888897 C107.33193478 18.24888897 106.67193478 18.24888897 105.99193478 18.24888897 C105.88880978 19.30076397 105.78568478 20.35263897 105.67943478 21.43638897 C105.00221543 25.1918781 104.09316237 27.13907212 101.99193478 30.24888897 C100.50810394 32.86741397 99.81024859 34.9635213 99.05443478 37.93638897 C98.70380978 39.02951397 98.35318478 40.12263897 97.99193478 41.24888897 C96.50693478 41.74388897 96.50693478 41.74388897 94.99193478 42.24888897 C94.99193478 44.55888897 94.99193478 46.86888897 94.99193478 49.24888897 C93.67193478 49.57888897 92.35193478 49.90888897 90.99193478 50.24888897 C90.88880978 50.92951397 90.78568478 51.61013897 90.67943478 52.31138897 C90.01084559 55.1680882 89.01345885 57.67979662 87.81224728 60.35045147 C86.94687409 62.35317228 86.21832931 64.3795455 85.49193478 66.43638897 C84.63780256 68.77071889 83.94509166 70.31072188 82.42943478 72.31138897 C80.39053865 75.05946635 79.85716205 77.96102533 78.99193478 81.24888897 C78.34993829 82.92521314 77.69299321 84.5963941 76.99193478 86.24888897 C76.66193478 86.24888897 76.33193478 86.24888897 75.99193478 86.24888897 C75.99193478 83.93888897 75.99193478 81.62888897 75.99193478 79.24888897 C76.65193478 79.24888897 77.31193478 79.24888897 77.99193478 79.24888897 C78.32193478 75.94888897 78.65193478 72.64888897 78.99193478 69.24888897 C79.98193478 68.91888897 80.97193478 68.58888897 81.99193478 68.24888897 C82.17755978 66.82576397 82.17755978 66.82576397 82.36693478 65.37388897 C82.99193478 62.24888897 82.99193478 62.24888897 84.99193478 60.24888897 C85.45355905 57.81636236 85.45355905 57.81636236 85.61693478 55.12388897 C85.6917004 54.21381084 85.76646603 53.30373272 85.84349728 52.36607647 C85.91697384 51.31806866 85.91697384 51.31806866 85.99193478 50.24888897 C86.98193478 49.91888897 87.97193478 49.58888897 88.99193478 49.24888897 C90.700485 46.24881626 90.700485 46.24881626 91.99193478 43.24888897 C92.65193478 43.24888897 93.31193478 43.24888897 93.99193478 43.24888897 C94.32193478 41.59888897 94.65193478 39.94888897 94.99193478 38.24888897 C95.98193478 37.91888897 96.97193478 37.58888897 97.99193478 37.24888897 C97.97130978 36.27951397 97.95068478 35.31013897 97.92943478 34.31138897 C97.99193478 31.24888897 97.99193478 31.24888897 98.99193478 30.24888897 C99.22386342 28.73419448 99.40408716 27.21134335 99.55443478 25.68638897 C99.68011837 24.44695538 99.68011837 24.44695538 99.80834103 23.18248272 C99.86892696 22.54439678 99.9295129 21.90631084 99.99193478 21.24888897 C100.98193478 20.91888897 101.97193478 20.58888897 102.99193478 20.24888897 C102.90943478 19.21763897 102.82693478 18.18638897 102.74193478 17.12388897 C103.03224236 12.62412143 104.38617502 10.83180864 106.99193478 7.24888897 C106.99193478 6.25888897 106.99193478 5.26888897 106.99193478 4.24888897 C71.02193478 4.24888897 35.05193478 4.24888897 -2.00806522 4.24888897 C-2.33806522 6.22888897 -2.66806522 8.20888897 -3.00806522 10.24888897 C-3.33806522 10.24888897 -3.66806522 10.24888897 -4.00806522 10.24888897 C-4.20337772 4.19420147 -4.20337772 4.19420147 -4.00806522 2.24888897 C-2.00806522 0.24888897 -2.00806522 0.24888897 0 0 Z " fill="#969696" transform="translate(398.00806522369385,83.75111103057861)"/>
<path d="M0 0 C-0.89203125 0.37511719 -1.7840625 0.75023438 -2.703125 1.13671875 C-3.87359375 1.64847656 -5.0440625 2.16023438 -6.25 2.6875 C-7.41015625 3.18636719 -8.5703125 3.68523437 -9.765625 4.19921875 C-13.18343466 6.10212968 -14.76859073 7.8367381 -17 11 C-19.43495488 13.55982436 -21.81370146 15.85805826 -24.625 18 C-30.13020044 22.63595826 -30.8779308 28.20158073 -32 35 C-32.66 35 -33.32 35 -34 35 C-33.71488055 52.65036892 -32.64845382 64.67243456 -20 78 C-17.72192076 80.07853945 -15.37394445 82.0301312 -13 84 C-13 84.66 -13 85.32 -13 86 C-12.195625 86.144375 -11.39125 86.28875 -10.5625 86.4375 C-8 87 -8 87 -7 88 C-4.839582 88.37168482 -2.67124378 88.69791391 -0.5 89 C5.88888889 89.88888889 5.88888889 89.88888889 7 91 C9.47163686 91.12682623 11.90290611 91.18520251 14.375 91.1875 C15.06078125 91.19974609 15.7465625 91.21199219 16.453125 91.22460938 C20.19296797 91.23552331 21.8099737 91.1266842 25 89 C26.299375 88.95875 27.59875 88.9175 28.9375 88.875 C36.48201616 88.2071248 43.467455 83.02042582 48.23046875 77.33984375 C48.81441406 76.56769531 49.39835937 75.79554688 50 75 C50.66 74.443125 51.32 73.88625 52 73.3125 C55.10175373 69.72609725 56.41263942 65.42434544 58 61 C58.82707306 63.36988243 59.12634 64.61730731 58.328125 67.03515625 C57.97234375 67.70417969 57.6165625 68.37320313 57.25 69.0625 C56.90453125 69.73410156 56.5590625 70.40570313 56.203125 71.09765625 C54.97733499 73.03583721 53.63262585 74.40095 52 76 C51.13360842 77.24155802 50.28019893 78.4922404 49.4375 79.75 C44.73661727 86.1196961 38.31481824 90.18563319 31 93 C30.67 93.33 30.34 93.66 30 94 C24.04091465 95.12389805 18.11461231 95.25120244 12.0625 95.3125 C11.11181641 95.34150391 10.16113281 95.37050781 9.18164062 95.40039062 C3.53528874 95.4509782 -0.44548802 94.83829471 -5.34594727 91.96166992 C-7.15311536 90.83593295 -7.15311536 90.83593295 -10 90 C-10 89.34 -10 88.68 -10 88 C-11.65 87.67 -13.3 87.34 -15 87 C-15 86.34 -15 85.68 -15 85 C-15.9075 84.979375 -16.815 84.95875 -17.75 84.9375 C-21 84 -21 84 -23.0625 80.6875 C-23.52076172 79.74003906 -23.52076172 79.74003906 -23.98828125 78.7734375 C-25.0238938 76.70314067 -25.0238938 76.70314067 -27.75 74.8125 C-28.4925 74.214375 -29.235 73.61625 -30 73 C-30 71.68 -30 70.36 -30 69 C-30.66 69 -31.32 69 -32 69 C-32.495 66.03 -32.495 66.03 -33 63 C-33.66 63 -34.32 63 -35 63 C-36.32143294 60.35713412 -36.12956773 58.35534582 -36.1328125 55.3984375 C-36.13410156 54.26792969 -36.13539063 53.13742188 -36.13671875 51.97265625 C-36.13285156 50.78542969 -36.12898437 49.59820312 -36.125 48.375 C-36.12886719 47.21097656 -36.13273438 46.04695313 -36.13671875 44.84765625 C-36.12987351 38.80331284 -35.9293928 32.97466799 -35 27 C-34.34 27 -33.68 27 -33 27 C-32.9071875 25.6696875 -32.9071875 25.6696875 -32.8125 24.3125 C-31.80841878 20.21893812 -30.04774567 18.82473989 -27 16 C-26.71125 15.278125 -26.4225 14.55625 -26.125 13.8125 C-25 12 -25 12 -21.375 10.75 C-20.26125 10.5025 -19.1475 10.255 -18 10 C-17.94714844 9.23171875 -17.89429688 8.4634375 -17.83984375 7.671875 C-17 5 -17 5 -14.56640625 3.453125 C-13.57511719 3.05609375 -12.58382813 2.6590625 -11.5625 2.25 C-10.57378906 1.84265625 -9.58507812 1.4353125 -8.56640625 1.015625 C-7.71949219 0.68046875 -6.87257813 0.3453125 -6 0 C-3.50907189 -1.24546405 -2.58919267 -0.7767578 0 0 Z " fill="#6B6B6B" transform="translate(284,85)"/>
<path d="M0 0 C12.62995485 -0.02312132 25.2599047 -0.04091401 37.88987637 -0.05181217 C43.75382164 -0.05704146 49.61775249 -0.06413994 55.48168945 -0.07543945 C61.13561712 -0.0862667 66.78953087 -0.09227649 72.44346809 -0.09487724 C74.6057361 -0.09673179 76.76800331 -0.10035295 78.93026543 -0.10573006 C81.94758657 -0.11293833 84.96484943 -0.11399103 87.98217773 -0.11352539 C88.8856041 -0.11712067 89.78903046 -0.12071594 90.71983337 -0.12442017 C96.88594784 -0.11405216 96.88594784 -0.11405216 98 1 C98.09652596 2.87294784 98.12187266 4.74958244 98.12025452 6.62501526 C98.12231651 8.45715576 98.12231651 8.45715576 98.12442017 10.3263092 C98.12088056 11.69223047 98.11724574 13.05815148 98.11352539 14.42407227 C98.11324352 15.85277301 98.11340124 17.2814739 98.1139679 18.71017456 C98.11425589 22.60049972 98.10835887 26.49079431 98.10139394 30.38111234 C98.0951607 34.44238205 98.09455663 38.50365239 98.09336853 42.56492615 C98.09025512 50.26078933 98.08204161 57.95663838 98.07201904 65.65249532 C98.05877303 76.04819051 98.05335807 86.44388954 98.04751682 96.83959103 C98.03810173 113.22640461 98.01818288 129.61318837 98 146 C129.02 146 160.04 146 192 146 C192 146.33 192 146.66 192 147 C160.32 147 128.64 147 96 147 C95.67 98.82 95.34 50.64 95 1 C63.65 1 32.3 1 0 1 C0 0.67 0 0.34 0 0 Z " fill="#C8C8C8" transform="translate(32,180)"/>
<path d="M0 0 C1.33347725 -0.002062 1.33347725 -0.002062 2.69389343 -0.00416565 C4.1450631 0.00122726 4.1450631 0.00122726 5.62554932 0.00672913 C6.65025833 0.0065831 7.67496735 0.00643707 8.73072815 0.00628662 C12.11789059 0.00698331 15.50499804 0.01476437 18.89215088 0.02259827 C21.24055959 0.02446331 23.58896869 0.02588681 25.93737793 0.02688599 C32.11874465 0.03070436 38.30008788 0.04052887 44.48144531 0.05158997 C50.78891685 0.06181868 57.09639219 0.06638674 63.40386963 0.07142639 C75.78018203 0.08215172 88.156477 0.09922002 100.53277588 0.12025452 C101.18511963 1.94837952 101.18511963 1.94837952 101.53277588 4.12025452 C99.09527588 6.87025452 99.09527588 6.87025452 96.53277588 9.12025452 C97.19277588 7.47025452 97.85277588 5.82025452 98.53277588 4.12025452 C46.06277588 3.62525452 46.06277588 3.62525452 -7.46722412 3.12025452 C-8.12722412 6.42025452 -8.78722412 9.72025452 -9.46722412 13.12025452 C-11.86722412 18.82025452 -11.86722412 18.82025452 -14.46722412 20.12025452 C-15.1979806 22.43431671 -15.8686067 24.76854321 -16.46722412 27.12025452 C-17.12722412 27.12025452 -17.78722412 27.12025452 -18.46722412 27.12025452 C-18.46722412 29.76025452 -18.46722412 32.40025452 -18.46722412 35.12025452 C-19.95222412 35.61525452 -19.95222412 35.61525452 -21.46722412 36.12025452 C-21.79722412 38.43025452 -22.12722412 40.74025452 -22.46722412 43.12025452 C-23.45722412 43.12025452 -24.44722412 43.12025452 -25.46722412 43.12025452 C-25.79722412 43.78025452 -26.12722412 44.44025452 -26.46722412 45.12025452 C-26.64664575 41.17297864 -26.56073102 38.52220322 -24.46722412 35.12025452 C-23.80722412 35.12025452 -23.14722412 35.12025452 -22.46722412 35.12025452 C-22.34218506 34.55951233 -22.217146 33.99877014 -22.08831787 33.42103577 C-21.41966091 30.94406124 -20.5176161 28.67496737 -19.52972412 26.30775452 C-17.89047543 22.2841441 -16.56326032 18.32172661 -15.46722412 14.12025452 C-14.80722412 14.12025452 -14.14722412 14.12025452 -13.46722412 14.12025452 C-13.13722412 11.81025452 -12.80722412 9.50025452 -12.46722412 7.12025452 C-11.47722412 7.12025452 -10.48722412 7.12025452 -9.46722412 7.12025452 C-9.13722412 5.14025452 -8.80722412 3.16025452 -8.46722412 1.12025452 C-5.57192406 0.29163383 -3.00765544 -0.00359767 0 0 Z " fill="#D5D5D5" transform="translate(404.46722412109375,86.87974548339844)"/>
<path d="M0 0 C0.6875 1.75 0.6875 1.75 1 4 C-0.3125 5.9375 -0.3125 5.9375 -2 8 C-3.33714305 10.82285756 -4.02290033 13.14885213 -4.5 16.25 C-4.665 17.1575 -4.83 18.065 -5 19 C-5.99 19.495 -5.99 19.495 -7 20 C-7.50537423 21.61719752 -7.9996238 23.23905237 -8.42578125 24.87890625 C-9.44401721 28.64014519 -10.74561811 32.31211723 -12 36 C-12.66 36 -13.32 36 -14 36 C-14.103125 37.258125 -14.20625 38.51625 -14.3125 39.8125 C-14.60792402 43.41667307 -15.4553544 44.524298 -18 47 C-19.1448895 49.3194829 -19.1448895 49.3194829 -20.0625 51.875 C-20.54396484 53.13957031 -20.54396484 53.13957031 -21.03515625 54.4296875 C-21.35355469 55.27789062 -21.67195313 56.12609375 -22 57 C-22.35964844 57.84433594 -22.71929687 58.68867188 -23.08984375 59.55859375 C-23.95222495 61.87184803 -24.31077147 63.74172127 -24.5 66.1875 C-25 70 -25 70 -27 72 C-27.78831287 73.99291139 -27.78831287 73.99291139 -28.4375 76.25 C-29.64458934 80.0532413 -31.18295789 83.44162588 -33 87 C-33.53335737 88.43290039 -34.05376998 89.87067221 -34.5625 91.3125 C-36 95 -36 95 -38 96 C-38.46523063 97.89533342 -38.46523063 97.89533342 -38.625 100.0625 C-38.74875 101.361875 -38.8725 102.66125 -39 104 C-39.99 104 -40.98 104 -42 104 C-42 107.3 -42 110.6 -42 114 C-42.99 114 -43.98 114 -45 114 C-45.33 115.98 -45.66 117.96 -46 120 C-46.99 120 -47.98 120 -49 120 C-49.1546875 121.670625 -49.1546875 121.670625 -49.3125 123.375 C-49.539375 124.57125 -49.76625 125.7675 -50 127 C-51.485 127.99 -51.485 127.99 -53 129 C-52.55005243 127.20620902 -52.08975857 125.41501072 -51.625 123.625 C-51.36976563 122.62726563 -51.11453125 121.62953125 -50.8515625 120.6015625 C-50 118 -50 118 -48 116 C-47.61550947 114.09255184 -47.61550947 114.09255184 -47.5 112 C-47.22222222 108.22222222 -47.22222222 108.22222222 -45 106 C-44.53908286 104.02464085 -44.07959409 102.0489167 -43.6328125 100.0703125 C-43 98 -43 98 -41 95.125 C-38.32611444 90.94705382 -37.72848409 86.85017036 -37 82 C-36.34 82 -35.68 82 -35 82 C-35 79.69 -35 77.38 -35 75 C-34.071875 74.690625 -34.071875 74.690625 -33.125 74.375 C-30.15232982 72.45150753 -29.92018084 70.32680765 -29 67 C-28.67 66.67 -28.34 66.34 -28 66 C-27.76636119 64.15108054 -27.58696365 62.29511969 -27.4375 60.4375 C-27.31181641 58.91962891 -27.31181641 58.91962891 -27.18359375 57.37109375 C-27.12300781 56.58863281 -27.06242187 55.80617187 -27 55 C-26.01 55 -25.02 55 -24 55 C-23.87625 54.071875 -23.7525 53.14375 -23.625 52.1875 C-23 49 -23 49 -21 46 C-20.29187186 43.67891331 -19.61975848 41.34622853 -19 39 C-18.34 39 -17.68 39 -17 39 C-16.690625 38.05125 -16.38125 37.1025 -16.0625 36.125 C-15 33 -15 33 -14 31 C-13.77532169 29.46331135 -13.59203195 27.92031946 -13.4375 26.375 C-13.35371094 25.55773437 -13.26992188 24.74046875 -13.18359375 23.8984375 C-13.09271484 22.95871094 -13.09271484 22.95871094 -13 22 C-12.01 22 -11.02 22 -10 22 C-9.731875 21.195625 -9.46375 20.39125 -9.1875 19.5625 C-8.795625 18.386875 -8.40375 17.21125 -8 16 C-7.75894531 15.21882812 -7.51789063 14.43765625 -7.26953125 13.6328125 C-6.88861328 12.42238281 -6.88861328 12.42238281 -6.5 11.1875 C-6.2628125 10.41792969 -6.025625 9.64835938 -5.78125 8.85546875 C-5 7 -5 7 -3 6 C-1.95191959 4.02477154 -0.9479589 2.02518491 0 0 Z " fill="#858585" transform="translate(473,170)"/>
<path d="M0 0 C0.33 0 0.66 0 1 0 C1 1.98 1 3.96 1 6 C0.01 6.33 -0.98 6.66 -2 7 C-1.505 11.455 -1.505 11.455 -1 16 C-2.32 16.66 -3.64 17.32 -5 18 C-5 19.98 -5 21.96 -5 24 C-5.99 24 -6.98 24 -8 24 C-8.185625 24.9590625 -8.185625 24.9590625 -8.375 25.9375 C-8.58125 26.618125 -8.7875 27.29875 -9 28 C-11.38463779 29.1923189 -12.83120832 29.12323131 -15.49246216 29.12025452 C-16.43759674 29.12162918 -17.38273132 29.12300385 -18.35650635 29.12442017 C-19.39659851 29.12082489 -20.43669067 29.11722961 -21.50830078 29.11352539 C-22.60099274 29.11367142 -23.69368469 29.11381744 -24.81948853 29.1139679 C-28.44478312 29.11326914 -32.07002684 29.10547842 -35.6953125 29.09765625 C-38.20352144 29.09579194 -40.71173075 29.0943681 -43.21994019 29.09336853 C-49.15559799 29.08993561 -55.09123937 29.08204764 -61.02688873 29.07201904 C-68.44630797 29.05975505 -75.86572947 29.05437629 -83.28515625 29.04882812 C-96.52344684 29.0380926 -109.76172226 29.02120871 -123 29 C-123.33 27.35 -123.66 25.7 -124 24 C-123.01 23.34 -122.02 22.68 -121 22 C-121 23.65 -121 25.3 -121 27 C-84.7 27 -48.4 27 -11 27 C-11 25.02 -11 23.04 -11 21 C-9.37382547 18.14017582 -7.89702904 15.75902457 -5.375 13.625 C-3.41810357 11.31230422 -3.11278673 8.86233778 -2.47265625 5.94140625 C-1.9431853 3.76663716 -1.12675031 1.93157196 0 0 Z " fill="#565656" transform="translate(419,300)"/>
<path d="M0 0 C0.99 0.33 1.98 0.66 3 1 C2.52449439 2.48034764 2.04448784 3.95925021 1.5625 5.4375 C1.29566406 6.26121094 1.02882813 7.08492188 0.75390625 7.93359375 C0 10 0 10 -1 11 C-1.185625 12.85625 -1.185625 12.85625 -1.375 14.75 C-1.8061984 18.55667336 -2.93667293 20.74629193 -5 24 C-5.81441141 26.25012637 -6.52680323 28.52254061 -7.24609375 30.8046875 C-8 33 -8 33 -9.5625 36.0625 C-10.81291667 38.61769928 -11.41234945 40.57336849 -12 43.3125 C-12.33 44.529375 -12.66 45.74625 -13 47 C-14.485 47.495 -14.485 47.495 -16 48 C-17.92036517 51.84073034 -18.8118846 55.84159611 -20 60 C-56.3 60 -92.6 60 -130 60 C-130 57.03 -130 54.06 -130 51 C-129.67 51 -129.34 51 -129 51 C-129 53.64 -129 56.28 -129 59 C-93.69 58.67 -58.38 58.34 -22 58 C-21.34 54.7 -20.68 51.4 -20 48 C-18.515 48.495 -18.515 48.495 -17 49 C-16.87625 48.05125 -16.7525 47.1025 -16.625 46.125 C-16 43 -16 43 -14 41 C-13.32707499 39.03309626 -13.32707499 39.03309626 -12.875 36.875 C-12.58625 35.59625 -12.2975 34.3175 -12 33 C-11.34 33 -10.68 33 -10 33 C-10 30.36 -10 27.72 -10 25 C-9.01 25 -8.02 25 -7 25 C-7 22.69 -7 20.38 -7 18 C-6.01 17.67 -5.02 17.34 -4 17 C-3.67 14.36 -3.34 11.72 -3 9 C-2.34 9 -1.68 9 -1 9 C-0.67 6.03 -0.34 3.06 0 0 Z " fill="#C8C8C8" transform="translate(428,267)"/>
<path d="M0 0 C0.625 1.875 0.625 1.875 1 4 C0.34 4.66 -0.32 5.32 -1 6 C-1 7.32 -1 8.64 -1 10 C36.62 10 74.24 10 113 10 C113 10.66 113 11.32 113 12 C110.59721025 13.20139488 109.11474633 13.12320302 106.43161011 13.12025452 C105.46964722 13.12162918 104.50768433 13.12300385 103.51657104 13.12442017 C102.4577774 13.12082489 101.39898376 13.11722961 100.30810547 13.11352539 C98.63980682 13.11374443 98.63980682 13.11374443 96.93780518 13.1139679 C93.2475797 13.1132691 89.5574042 13.10547824 85.8671875 13.09765625 C83.31413806 13.09579195 80.76108826 13.0943681 78.20803833 13.09336853 C72.16613084 13.08993553 66.12424492 13.08204747 60.08234608 13.07201904 C53.20456124 13.06085045 46.32677555 13.05534557 39.44898391 13.05032361 C25.2993126 13.03986466 11.14965729 13.02226986 -3 13 C-4.28317892 9.15046324 -4.06643637 6.05261865 -4 2 C-2.68 2 -1.36 2 0 2 C0 1.34 0 0.68 0 0 Z " fill="#2D2D2D" transform="translate(297,318)"/>
<path d="M0 0 C0.95072891 -0.00281982 1.90145782 -0.00563965 2.8809967 -0.00854492 C4.4581974 -0.00550858 4.4581974 -0.00550858 6.06726074 -0.00241089 C7.16795395 -0.00416321 8.26864716 -0.00591553 9.4026947 -0.00772095 C13.06108145 -0.01214204 16.71942033 -0.00920056 20.37780762 -0.00582886 C22.9074708 -0.00650182 25.43713392 -0.00747178 27.96679688 -0.00872803 C33.27649611 -0.01020535 38.58617799 -0.00814394 43.89587402 -0.00338745 C50.0426172 0.00205514 56.18932721 0.00029246 62.33606958 -0.00521386 C68.23873325 -0.01029076 74.14138658 -0.00976341 80.04405212 -0.00683212 C82.56078598 -0.0061626 85.07752067 -0.00699216 87.59425354 -0.00931168 C91.10481037 -0.01183669 94.61530251 -0.00799974 98.12585449 -0.00241089 C99.17732162 -0.00443512 100.22878876 -0.00645935 101.31211853 -0.00854492 C102.26284744 -0.0057251 103.21357635 -0.00290527 104.19311523 0 C105.02419548 0.00037703 105.85527573 0.00075405 106.71154022 0.0011425 C108.59655762 0.12698364 108.59655762 0.12698364 109.59655762 1.12698364 C109.73770923 3.79757215 109.63902869 6.45130602 109.59655762 9.12698364 C108.60655762 9.12698364 107.61655762 9.12698364 106.59655762 9.12698364 C106.26655762 10.11698364 105.93655762 11.10698364 105.59655762 12.12698364 C106.26322428 8.79365031 106.92989095 5.46031698 107.59655762 2.12698364 C93.02798626 2.18745713 78.459594 2.26511148 63.891222 2.36269855 C57.1271635 2.40770214 50.36315818 2.44710606 43.59899902 2.47341919 C37.07611477 2.49880935 30.55343587 2.53968305 24.03069687 2.59016991 C21.53714804 2.60690659 19.04355833 2.61837829 16.54996109 2.62459755 C13.06800613 2.63416481 9.58666419 2.66213543 6.1048584 2.6946106 C4.54472015 2.69245796 4.54472015 2.69245796 2.95306396 2.69026184 C2.00792938 2.70279999 1.0627948 2.71533813 0.08901978 2.72825623 C-1.14710462 2.73516967 -1.14710462 2.73516967 -2.40820122 2.74222279 C-3.0666308 2.86919387 -3.72506039 2.99616495 -4.40344238 3.12698364 C-5.06344238 4.11698364 -5.72344238 5.10698364 -6.40344238 6.12698364 C-5.30415926 0.00240627 -5.30415926 0.00240627 0 0 Z " fill="#565656" transform="translate(400.4034423828125,83.87301635742188)"/>
<path d="M0 0 C1.31079811 3.60678206 0.68377822 5.53159537 -0.8125 9 C-1.16957031 9.845625 -1.52664063 10.69125 -1.89453125 11.5625 C-2.88072155 13.73699733 -3.91268707 15.87457383 -5 18 C-5.66 18 -6.32 18 -7 18 C-7.16435547 19.24716797 -7.16435547 19.24716797 -7.33203125 20.51953125 C-7.49058594 21.60621094 -7.64914062 22.69289063 -7.8125 23.8125 C-7.96332031 24.89144531 -8.11414063 25.97039062 -8.26953125 27.08203125 C-9.04322352 30.17266295 -9.706001 30.95221555 -12 33 C-12.70491267 35.32206525 -13.37212429 37.65593068 -14 40 C-14.66 40.99 -15.32 41.98 -16 43 C-16.68939809 45.32671854 -17.35466922 47.66067594 -18 50 C-18.64199649 51.67632417 -19.29894157 53.34750513 -20 55 C-20.66 55 -21.32 55 -22 55 C-22.268125 55.99 -22.53625 56.98 -22.8125 58 C-23.98733302 62.08743989 -25.43737094 66.04668204 -27 70 C-27.38414062 70.99 -27.76828125 71.98 -28.1640625 73 C-28.58429688 74.051875 -29.00453125 75.10375 -29.4375 76.1875 C-29.82808594 77.17105469 -30.21867187 78.15460938 -30.62109375 79.16796875 C-32.08658752 82.17783556 -33.84451556 84.45027188 -36 87 C-36.66 87.99 -37.32 88.98 -38 90 C-38.1875 87.125 -38.1875 87.125 -38 84 C-36.515 83.01 -36.515 83.01 -35 82 C-34.27617533 79.94074861 -34.27617533 79.94074861 -34 78 C-33.34 78 -32.68 78 -32 78 C-32.0928125 76.63875 -32.0928125 76.63875 -32.1875 75.25 C-32 72 -32 72 -30.5625 70.125 C-28.20805221 66.922951 -28.32727853 63.9273423 -28 60 C-27.01 60 -26.02 60 -25 60 C-24.67 57.36 -24.34 54.72 -24 52 C-22.515 51.505 -22.515 51.505 -21 51 C-18.36257382 46.45776603 -18.37828288 41.12672848 -18 36 C-16.02 35.505 -16.02 35.505 -14 35 C-14 33.35 -14 31.7 -14 30 C-13.01 29.67 -12.02 29.34 -11 29 C-11 25.7 -11 22.4 -11 19 C-10.01 18.67 -9.02 18.34 -8 18 C-8 15.69 -8 13.38 -8 11 C-6.68 11 -5.36 11 -4 11 C-3.896875 10.484375 -3.79375 9.96875 -3.6875 9.4375 C-2.75736134 6.13973565 -1.38604488 3.13366668 0 0 Z " fill="#636363" transform="translate(387,104)"/>
<path d="M0 0 C-0.89203125 0.37511719 -1.7840625 0.75023438 -2.703125 1.13671875 C-3.87359375 1.64847656 -5.0440625 2.16023438 -6.25 2.6875 C-7.41015625 3.18636719 -8.5703125 3.68523437 -9.765625 4.19921875 C-13.18343466 6.10212968 -14.76859073 7.8367381 -17 11 C-19.43495488 13.55982436 -21.81370146 15.85805826 -24.625 18 C-30.13020044 22.63595826 -30.8779308 28.20158073 -32 35 C-32.66 35 -33.32 35 -34 35 C-33.88964039 38.39647413 -33.75912556 41.79188789 -33.625 45.1875 C-33.5940625 46.14720703 -33.563125 47.10691406 -33.53125 48.09570312 C-33.49257812 49.02705078 -33.45390625 49.95839844 -33.4140625 50.91796875 C-33.3826416 51.77156982 -33.3512207 52.6251709 -33.31884766 53.50463867 C-32.96607817 56.26547855 -32.08403642 58.44768454 -31 61 C-30.76391849 63.70549407 -30.90765017 66.27567998 -31 69 C-31.66 68.34 -32.32 67.68 -33 67 C-33 65.68 -33 64.36 -33 63 C-33.66 63 -34.32 63 -35 63 C-36.32143294 60.35713412 -36.12956773 58.35534582 -36.1328125 55.3984375 C-36.13410156 54.26792969 -36.13539063 53.13742188 -36.13671875 51.97265625 C-36.13285156 50.78542969 -36.12898437 49.59820312 -36.125 48.375 C-36.12886719 47.21097656 -36.13273438 46.04695313 -36.13671875 44.84765625 C-36.12987351 38.80331284 -35.9293928 32.97466799 -35 27 C-34.34 27 -33.68 27 -33 27 C-32.9071875 25.6696875 -32.9071875 25.6696875 -32.8125 24.3125 C-31.80841878 20.21893812 -30.04774567 18.82473989 -27 16 C-26.71125 15.278125 -26.4225 14.55625 -26.125 13.8125 C-25 12 -25 12 -21.375 10.75 C-20.26125 10.5025 -19.1475 10.255 -18 10 C-17.94714844 9.23171875 -17.89429688 8.4634375 -17.83984375 7.671875 C-17 5 -17 5 -14.56640625 3.453125 C-13.57511719 3.05609375 -12.58382813 2.6590625 -11.5625 2.25 C-10.57378906 1.84265625 -9.58507812 1.4353125 -8.56640625 1.015625 C-7.71949219 0.68046875 -6.87257813 0.3453125 -6 0 C-3.50907189 -1.24546405 -2.58919267 -0.7767578 0 0 Z " fill="#626262" transform="translate(284,85)"/>
<path d="M0 0 C0.86302734 -0.01087646 1.72605469 -0.02175293 2.61523438 -0.03295898 C8.90309033 0.10681149 13.4927272 1.83226885 19.0625 4.625 C20.35181697 5.13102818 21.64335071 5.63146135 22.9375 6.125 C26.06615683 7.62675528 27.33279786 8.67433164 29.0625 11.625 C23.48313839 9.84974858 23.48313839 9.84974858 21.18359375 8.62109375 C18.75221207 7.47928467 16.51686857 7.02687572 13.875 6.5625 C9.16570285 5.72820285 9.16570285 5.72820285 8.0625 4.625 C5.27987057 4.49784478 2.5330927 4.43978685 -0.25 4.4375 C-1.40918945 4.41913086 -1.40918945 4.41913086 -2.59179688 4.40039062 C-6.63448783 4.38996236 -9.39178954 4.51695802 -12.9375 6.625 C-15.0078125 6.96875 -15.0078125 6.96875 -17.0625 7.125 C-20.94456948 7.22486718 -20.94456948 7.22486718 -22.9375 9.625 C-24.59188613 10.32158363 -26.26004318 10.98596883 -27.9375 11.625 C-29.27800052 12.27713539 -30.61411368 12.93879969 -31.9375 13.625 C-28.86112273 7.21588068 -24.32813883 4.80273324 -17.86694336 2.42578125 C-11.9427968 0.53916944 -6.19583558 0.05221827 0 0 Z " fill="#C9C9C9" transform="translate(298.9375,82.375)"/>
<path d="M0 0 C0.625 1.8125 0.625 1.8125 1 4 C0.01 5.485 0.01 5.485 -1 7 C-1.45394552 9.27912938 -1.45394552 9.27912938 -1.625 11.6875 C-1.69976562 12.49574219 -1.77453125 13.30398438 -1.8515625 14.13671875 C-1.90054687 14.75160156 -1.94953125 15.36648438 -2 16 C-2.99 16 -3.98 16 -5 16 C-5.33 18.97 -5.66 21.94 -6 25 C-6.99 25 -7.98 25 -9 25 C-9.33 27.64 -9.66 30.28 -10 33 C-10.66 33 -11.32 33 -12 33 C-12.33 35.97 -12.66 38.94 -13 42 C-13.66 42 -14.32 42 -15 42 C-15.103125 42.94875 -15.20625 43.8975 -15.3125 44.875 C-16 48 -16 48 -19 50 C-19.57748803 51.96361864 -19.57748803 51.96361864 -19.6875 54.125 C-19.790625 55.40375 -19.89375 56.6825 -20 58 C-20.99 58 -21.98 58 -23 58 C-23 60.31 -23 62.62 -23 65 C-24.485 65.495 -24.485 65.495 -26 66 C-26.33 67.98 -26.66 69.96 -27 72 C-27.99 71.67 -28.98 71.34 -30 71 C-28.93206326 66.64610406 -28.14473964 64.10442246 -25 61 C-24.07969101 59.20798497 -24.07969101 59.20798497 -23.4375 57.25 C-23.19257813 56.55390625 -22.94765625 55.8578125 -22.6953125 55.140625 C-21.71195719 52.11321652 -20.83213177 49.07248652 -20 46 C-19.34 46 -18.68 46 -18 46 C-18 43.36 -18 40.72 -18 38 C-17.01 37.505 -17.01 37.505 -16 37 C-15.26369283 35.09229507 -14.53429977 33.18143217 -13.8515625 31.25390625 C-12.50735207 27.69606488 -10.74609603 24.37345753 -9 21 C-8.46375 19.906875 -7.9275 18.81375 -7.375 17.6875 C-6 15 -6 15 -4 12 C-3.31060191 9.67328146 -2.64533078 7.33932406 -2 5 C-1.35800351 3.32367583 -0.70105843 1.65249487 0 0 Z " fill="#B1B1B1" transform="translate(329,246)"/>
<path d="M0 0 C0 3.15860845 -0.52512704 4.40400285 -1.875 7.1875 C-3.29857673 10.2552076 -4.37861271 13.13894972 -5.125 16.4375 C-6 20 -6 20 -8 22 C-8.68346682 23.65984798 -9.34588315 25.32836805 -10 27 C-10.61401147 28.25543416 -11.24009936 29.50499953 -11.875 30.75 C-14.08117036 35.09598972 -16.0555506 39.53190351 -18 44 C-18.66 44 -19.32 44 -20 44 C-20 46.64 -20 49.28 -20 52 C-20.99 52.495 -20.99 52.495 -22 53 C-22.50607484 54.61943949 -23.00202523 56.24297783 -23.4375 57.8828125 C-24.06082663 60.22894467 -24.72565527 62.55408959 -25.4375 64.875 C-25.66308594 65.63554687 -25.88867188 66.39609375 -26.12109375 67.1796875 C-26.41113281 67.78039062 -26.70117188 68.38109375 -27 69 C-28.485 69.495 -28.485 69.495 -30 70 C-29.938125 70.94875 -29.87625 71.8975 -29.8125 72.875 C-29.874375 73.90625 -29.93625 74.9375 -30 76 C-31.485 76.99 -31.485 76.99 -33 78 C-32.06105949 72.830304 -31.22237806 69.20310182 -28 65 C-27.63858045 62.67085177 -27.30300475 60.33746522 -27 58 C-26.34 57.34 -25.68 56.68 -25 56 C-24.31246699 54.34183216 -23.64438717 52.67540664 -23 51 C-22.505 50.505 -22.505 50.505 -22 50 C-21.6068352 48.32115762 -21.25914548 46.63149955 -20.9375 44.9375 C-20.76089844 44.01839844 -20.58429688 43.09929687 -20.40234375 42.15234375 C-20.26957031 41.44207031 -20.13679688 40.73179687 -20 40 C-19.34 40 -18.68 40 -18 40 C-17.67 37.36 -17.34 34.72 -17 32 C-16.01 31.67 -15.02 31.34 -14 31 C-13.39938767 29.09821215 -13.39938767 29.09821215 -13 27 C-12.34 26.01 -11.68 25.02 -11 24 C-10.835 22.80375 -10.67 21.6075 -10.5 20.375 C-10.335 19.26125 -10.17 18.1475 -10 17 C-9.34 16.67 -8.68 16.34 -8 16 C-7.26924352 13.6859378 -6.59861742 11.35171131 -6 9 C-5.34 9 -4.68 9 -4 9 C-3.71125 7.88625 -3.4225 6.7725 -3.125 5.625 C-2 2 -2 2 0 0 Z " fill="#424242" transform="translate(331,240)"/>
<path d="M0 0 C0.66 0.33 1.32 0.66 2 1 C1.34 1.66 0.68 2.32 0 3 C-0.144375 3.680625 -0.28875 4.36125 -0.4375 5.0625 C-0.623125 5.701875 -0.80875 6.34125 -1 7 C-1.99 7.33 -2.98 7.66 -4 8 C-4.33 8.66 -4.66 9.32 -5 10 C-5.99 10 -6.98 10 -8 10 C-8.144375 10.639375 -8.28875 11.27875 -8.4375 11.9375 C-9 14 -9 14 -10 15 C-10.21063107 17.50416935 -10.37572077 19.99140081 -10.5 22.5 C-10.86486486 29.86486486 -10.86486486 29.86486486 -12 31 C-12.71937473 40.2180343 -12.02118504 49.10956636 -7 57 C-7.33 57.99 -7.66 58.98 -8 60 C-14.09030716 51.80958692 -15.46117588 44.0214034 -15.1875 33.9375 C-15.17396484 32.97650391 -15.16042969 32.01550781 -15.14648438 31.02539062 C-15.11152306 28.68298248 -15.06246104 26.34180844 -15 24 C-14.34 24 -13.68 24 -13 24 C-12.97421875 23.34773438 -12.9484375 22.69546875 -12.921875 22.0234375 C-12.35693574 13.31823708 -9.3077723 8.98429679 -3 3 C-2.401875 2.401875 -1.80375 1.80375 -1.1875 1.1875 C-0.795625 0.795625 -0.40375 0.40375 0 0 Z " fill="#C5C5C5" transform="translate(265,96)"/>
<path d="M0 0 C0.82707306 2.36988243 1.12634 3.61730731 0.328125 6.03515625 C-0.02765625 6.70417969 -0.3834375 7.37320313 -0.75 8.0625 C-1.09546875 8.73410156 -1.4409375 9.40570313 -1.796875 10.09765625 C-3.02266501 12.03583721 -4.36737415 13.40095 -6 15 C-6.86639158 16.24155802 -7.71980107 17.4922404 -8.5625 18.75 C-13.59556559 25.48560877 -20.38459777 30.5571214 -28.8203125 31.796875 C-38.42943439 32.41072554 -48.52572514 32.93510516 -58 31 C-58 30.34 -58 29.68 -58 29 C-58.66 28.67 -59.32 28.34 -60 28 C-52.125 28.875 -52.125 28.875 -51 30 C-48.52836314 30.12682623 -46.09709389 30.18520251 -43.625 30.1875 C-42.93921875 30.19974609 -42.2534375 30.21199219 -41.546875 30.22460938 C-37.80703203 30.23552331 -36.1900263 30.1266842 -33 28 C-31.700625 27.95875 -30.40125 27.9175 -29.0625 27.875 C-21.51798384 27.2071248 -14.532545 22.02042582 -9.76953125 16.33984375 C-9.18558594 15.56769531 -8.60164063 14.79554688 -8 14 C-7.34 13.443125 -6.68 12.88625 -6 12.3125 C-2.89824627 8.72609725 -1.58736058 4.42434544 0 0 Z " fill="#AEAEAE" transform="translate(342,146)"/>
<path d="M0 0 C6.8562885 2.99962622 12.45667117 9.50389714 16 16 C16 17.32 16 18.64 16 20 C17.32 20.33 18.64 20.66 20 21 C20 30.9 20 40.8 20 51 C18.02 51.495 18.02 51.495 16 52 C16.16081055 51.44368896 16.32162109 50.88737793 16.48730469 50.31420898 C17.45164128 45.96137731 17.22694499 41.50347109 17.25 37.0625 C17.270625 36.07314453 17.29125 35.08378906 17.3125 34.06445312 C17.34091471 28.78286964 17.27467502 25.35555797 14 21 C13.36696919 19.32311431 12.76217064 17.63527126 12.1875 15.9375 C10.37388227 11.22209389 8.42419754 9.54156029 4 7 C2.42148665 4.71387722 1.2371567 2.4743134 0 0 Z " fill="#535353" transform="translate(328,94)"/>
<path d="M0 0 C0.33 0 0.66 0 1 0 C1 1.65 1 3.3 1 5 C36.97 5 72.94 5 110 5 C110 5.33 110 5.66 110 6 C95.69232647 6.02334009 81.38465588 6.04091821 67.07696724 6.05181217 C60.43395453 6.05703966 53.79095458 6.0641349 47.14794922 6.07543945 C40.74188994 6.08627306 34.33584296 6.09227785 27.92977524 6.09487724 C25.48085206 6.09673063 23.03192959 6.1003496 20.58301163 6.10573006 C17.16356175 6.11294674 13.74416325 6.11399067 10.32470703 6.11352539 C8.792621 6.1189183 8.792621 6.1189183 7.22958374 6.12442017 C6.30127747 6.1230455 5.37297119 6.12167084 4.41653442 6.12025452 C3.60720018 6.12117631 2.79786594 6.1220981 1.96400642 6.12304783 C0 6 0 6 -2 5 C-1.125 1.125 -1.125 1.125 0 0 Z " fill="#8B8B8B" transform="translate(297,322)"/>
<path d="M0 0 C1.02568631 3.12557112 1.00835842 4.783804 -0.25 7.8125 C-0.53359375 8.50988281 -0.8171875 9.20726562 -1.109375 9.92578125 C-1.40328125 10.61027344 -1.6971875 11.29476562 -2 12 C-2.495 13.155 -2.99 14.31 -3.5 15.5 C-3.995 16.655 -4.49 17.81 -5 19 C-5.50416597 20.39433402 -6.004102 21.79020409 -6.5 23.1875 C-7.35413221 25.52182992 -8.04684312 27.06183291 -9.5625 29.0625 C-11.60139612 31.81057738 -12.13477273 34.71213636 -13 38 C-13.64199649 39.67632417 -14.29894157 41.34750513 -15 43 C-15.33 43 -15.66 43 -16 43 C-16 40.69 -16 38.38 -16 36 C-15.34 36 -14.68 36 -14 36 C-13.67 32.7 -13.34 29.4 -13 26 C-12.01 25.67 -11.02 25.34 -10 25 C-9.87625 24.05125 -9.7525 23.1025 -9.625 22.125 C-9 19 -9 19 -7 17 C-6.53837573 14.56747339 -6.53837573 14.56747339 -6.375 11.875 C-6.30023438 10.96492187 -6.22546875 10.05484375 -6.1484375 9.1171875 C-6.09945313 8.41851562 -6.05046875 7.71984375 -6 7 C-5.01 6.67 -4.02 6.34 -3 6 C-1.29144978 2.99992729 -1.29144978 2.99992729 0 0 Z " fill="#BCBCBC" transform="translate(490,127)"/>
<path d="M0 0 C0.66 0 1.32 0 2 0 C1.91266424 1.60517097 1.80447776 3.20921662 1.6875 4.8125 C1.62949219 5.70582031 1.57148438 6.59914063 1.51171875 7.51953125 C0.9212561 10.38169751 0.09884719 11.07248728 -2 13 C-2.74386068 15.30988315 -3.42190703 17.64315944 -4 20 C-4.66 20 -5.32 20 -6 20 C-6 22.64 -6 25.28 -6 28 C-6.99 28.33 -7.98 28.66 -9 29 C-9.33 31.31 -9.66 33.62 -10 36 C-10.99 36 -11.98 36 -13 36 C-13.33 36.66 -13.66 37.32 -14 38 C-14.17942163 34.05272412 -14.09350689 31.4019487 -12 28 C-11.34 28 -10.68 28 -10 28 C-9.87496094 27.43925781 -9.74992187 26.87851563 -9.62109375 26.30078125 C-8.95243679 23.82380673 -8.05039198 21.55471286 -7.0625 19.1875 C-5.42325131 15.16388959 -4.0960362 11.2014721 -3 7 C-2.34 7 -1.68 7 -1 7 C-0.67 4.69 -0.34 2.38 0 0 Z " fill="#B8B8B8" transform="translate(392,94)"/>
<path d="M0 0 C0.33 0 0.66 0 1 0 C1 3.3 1 6.6 1 10 C0.01 10.495 0.01 10.495 -1 11 C-1.72159424 12.64363134 -2.39351421 14.31050386 -3 16 C-3.99 16 -4.98 16 -6 16 C-6 16.99 -6 17.98 -6 19 C-6.66 19 -7.32 19 -8 19 C-8.1546875 19.9590625 -8.1546875 19.9590625 -8.3125 20.9375 C-8.539375 21.618125 -8.76625 22.29875 -9 23 C-9.99 23.33 -10.98 23.66 -12 24 C-12 24.66 -12 25.32 -12 26 C-12.969375 26.28875 -13.93875 26.5775 -14.9375 26.875 C-18.10664203 27.64214682 -18.10664203 27.64214682 -19 30 C-20.32 29.67 -21.64 29.34 -23 29 C-21.71283353 27.99421411 -20.42011342 26.99553202 -19.125 26 C-18.40570313 25.443125 -17.68640625 24.88625 -16.9453125 24.3125 C-15 23 -15 23 -13 23 C-12.773125 22.484375 -12.54625 21.96875 -12.3125 21.4375 C-7.68421053 12.84210526 -7.68421053 12.84210526 -4 11 C-3.21984379 9.17489003 -2.52204594 7.31393324 -1.875 5.4375 C-1.52179688 4.42558594 -1.16859375 3.41367188 -0.8046875 2.37109375 C-0.53914063 1.58863281 -0.27359375 0.80617187 0 0 Z " fill="#454545" transform="translate(343,146)"/>
<path d="M0 0 C0 3.79653655 -1.37052835 6.68544238 -2.8125 10.125 C-4.62180654 14.50342686 -6.32456892 18.83189641 -7.6875 23.375 C-8.3371875 25.169375 -8.3371875 25.169375 -9 27 C-9.99 27.33 -10.98 27.66 -12 28 C-12.12117188 28.71027344 -12.24234375 29.42054688 -12.3671875 30.15234375 C-12.53476562 31.07144531 -12.70234375 31.99054688 -12.875 32.9375 C-13.03742188 33.85402344 -13.19984375 34.77054688 -13.3671875 35.71484375 C-13.57601563 36.46894531 -13.78484375 37.22304687 -14 38 C-14.99 38.495 -14.99 38.495 -16 39 C-16 36.36 -16 33.72 -16 31 C-15.34 31 -14.68 31 -14 31 C-13.34 28.03 -12.68 25.06 -12 22 C-11.34 22 -10.68 22 -10 22 C-9.814375 20.5459375 -9.814375 20.5459375 -9.625 19.0625 C-9.41875 18.051875 -9.2125 17.04125 -9 16 C-8.34 15.67 -7.68 15.34 -7 15 C-6.53476937 13.10466658 -6.53476937 13.10466658 -6.375 10.9375 C-6.25125 9.638125 -6.1275 8.33875 -6 7 C-5.01 7 -4.02 7 -3 7 C-2.87625 6.21625 -2.7525 5.4325 -2.625 4.625 C-2 2 -2 2 0 0 Z " fill="#5D5D5D" transform="translate(348,198)"/>
<path d="M0 0 C0.625 1.8125 0.625 1.8125 1 4 C0.01 5.485 0.01 5.485 -1 7 C-1.38117636 9.17975304 -1.38117636 9.17975304 -1.5 11.5 C-1.73196335 14.97945019 -1.9701081 15.95516215 -4 19 C-4.38499891 20.65549531 -4.72793135 22.3222433 -5 24 C-5.66 24 -6.32 24 -7 24 C-7.09796875 24.62648437 -7.1959375 25.25296875 -7.296875 25.8984375 C-7.44640625 26.71570313 -7.5959375 27.53296875 -7.75 28.375 C-7.88921875 29.18710938 -8.0284375 29.99921875 -8.171875 30.8359375 C-9.23602951 33.61679409 -10.36831834 33.80849059 -13 35 C-13.33 35.99 -13.66 36.98 -14 38 C-14.125 32.25 -14.125 32.25 -13 30 C-12.34 30 -11.68 30 -11 30 C-11 27.69 -11 25.38 -11 23 C-10.38125 22.79375 -9.7625 22.5875 -9.125 22.375 C-6.15232982 20.45150753 -5.92018084 18.32680765 -5 15 C-4.67 14.67 -4.34 14.34 -4 14 C-3.76636119 12.15108054 -3.58696365 10.29511969 -3.4375 8.4375 C-3.35371094 7.42558594 -3.26992188 6.41367188 -3.18359375 5.37109375 C-3.12300781 4.58863281 -3.06242187 3.80617187 -3 3 C-2.01 3 -1.02 3 0 3 C0 2.01 0 1.02 0 0 Z " fill="#C5C5C5" transform="translate(449,222)"/>
<path d="M0 0 C1.32837891 -0.0299707 1.32837891 -0.0299707 2.68359375 -0.06054688 C9.18155265 -0.05577598 13.76077745 1.51830275 19.5 4.4375 C20.7890088 4.94431268 22.08053324 5.44479464 23.375 5.9375 C26.50365683 7.43925528 27.77029786 8.48683164 29.5 11.4375 C25.26524059 10.13884045 21.58785423 8.45552971 17.6875 6.375 C5.19031882 0.56765385 -7.52723673 1.79854739 -20.5 5.4375 C-19.20438586 2.84627173 -18.29197418 2.76996767 -15.59375 1.83984375 C-10.35952477 0.19897211 -5.45387896 -0.04366279 0 0 Z " fill="#8F8F8F" transform="translate(298.5,82.5625)"/>
<path d="M0 0 C0.33 1.32 0.66 2.64 1 4 C0.34 4 -0.32 4 -1 4 C-1.1546875 5.5778125 -1.1546875 5.5778125 -1.3125 7.1875 C-1.98971935 10.94298913 -2.8987724 12.89018316 -5 16 C-6.48383083 18.618525 -7.18168619 20.71463233 -7.9375 23.6875 C-8.288125 24.780625 -8.63875 25.87375 -9 27 C-9.99 27.33 -10.98 27.66 -12 28 C-12 30.31 -12 32.62 -12 35 C-13.98 35.495 -13.98 35.495 -16 36 C-15.60350587 34.20376144 -15.18206548 32.41301565 -14.75 30.625 C-14.51796875 29.62726563 -14.2859375 28.62953125 -14.046875 27.6015625 C-13 25 -13 25 -10.890625 23.6484375 C-10.26671875 23.43445313 -9.6428125 23.22046875 -9 23 C-9.103125 22.195625 -9.20625 21.39125 -9.3125 20.5625 C-8.93631635 16.27400635 -7.42097634 13.88763244 -5.23828125 10.25390625 C-4.08123786 8.14786827 -3.39797845 6.31811385 -2.8125 4 C-2.544375 3.01 -2.27625 2.02 -2 1 C-1.34 0.67 -0.68 0.34 0 0 Z " fill="#5B5B5B" transform="translate(505,98)"/>
<path d="M0 0 C1.0326802 2.78823655 1.04509293 3.8677274 0.0625 6.75 C-0.288125 7.4925 -0.63875 8.235 -1 9 C-1.66 9 -2.32 9 -3 9 C-2.95875 10.27875 -2.9175 11.5575 -2.875 12.875 C-2.8046875 15.0546875 -2.8046875 15.0546875 -3 17 C-3.66 17.66 -4.32 18.32 -5 19 C-5.71927295 21.31765729 -6.3909893 23.65095874 -7 26 C-8.32 26.33 -9.64 26.66 -11 27 C-11 28.65 -11 30.3 -11 32 C-12.485 32.495 -12.485 32.495 -14 33 C-12.51446416 25.53608823 -11.06203948 20.80282574 -6 15 C-4.8132486 12.23226813 -3.83576856 9.44569681 -2.89453125 6.5859375 C-2.09078113 4.26243279 -1.15427194 2.16616673 0 0 Z " fill="#C8C8C8" transform="translate(361,170)"/>
<path d="M0 0 C0.33 0 0.66 0 1 0 C1 3.3 1 6.6 1 10 C0.01 10 -0.98 10 -2 10 C-1.938125 11.2375 -1.87625 12.475 -1.8125 13.75 C-1.80584696 17.53558137 -2.43546457 19.13955664 -5 22 C-5.33 22.886875 -5.66 23.77375 -6 24.6875 C-6.33 25.450625 -6.66 26.21375 -7 27 C-7.99 27.33 -8.98 27.66 -10 28 C-9.938125 28.78375 -9.87625 29.5675 -9.8125 30.375 C-9.874375 31.24125 -9.93625 32.1075 -10 33 C-10.99 33.66 -11.98 34.32 -13 35 C-12.81824219 34.46632812 -12.63648438 33.93265625 -12.44921875 33.3828125 C-10.74993292 28.34595501 -9.2136306 23.30111476 -7.84375 18.1640625 C-6.91682246 15.78666501 -5.81390569 14.7465458 -4 13 C-3.25881795 10.68925595 -2.59793673 8.35188447 -2 6 C-1.34427209 3.99638693 -0.68124706 1.99508067 0 0 Z " fill="#DADADA" transform="translate(343,210)"/>
<path d="M0 0 C0.5625 1.9375 0.5625 1.9375 1 4 C0.67 4.33 0.34 4.66 0 5 C-0.24179404 7.28808802 -0.38336599 9.57465815 -0.5234375 11.87109375 C-1 14 -1 14 -4 16 C-4.57748803 17.96361864 -4.57748803 17.96361864 -4.6875 20.125 C-4.8421875 22.043125 -4.8421875 22.043125 -5 24 C-5.99 24 -6.98 24 -8 24 C-8 26.31 -8 28.62 -8 31 C-8.99 31.33 -9.98 31.66 -11 32 C-11.33 33.98 -11.66 35.96 -12 38 C-12.99 37.67 -13.98 37.34 -15 37 C-13.93206326 32.64610406 -13.14473964 30.10442246 -10 27 C-9.07969101 25.20798497 -9.07969101 25.20798497 -8.4375 23.25 C-8.07011719 22.20585937 -8.07011719 22.20585937 -7.6953125 21.140625 C-6.71195719 18.11321652 -5.83213177 15.07248652 -5 12 C-4.34 12 -3.68 12 -3 12 C-3 9.36 -3 6.72 -3 4 C-2.34 3.67 -1.68 3.34 -1 3 C-0.67 2.01 -0.34 1.02 0 0 Z " fill="#A0A0A0" transform="translate(314,280)"/>
<path d="M0 0 C3.46667749 2.21462069 4.70814892 4.01715147 6.0625 7.875 C7.0406314 10.62048471 7.84127182 12.78849179 9.59765625 15.12890625 C11.80253584 19.64307476 11.4330763 24.10988181 11.375 29.0625 C11.38660156 30.05572266 11.39820313 31.04894531 11.41015625 32.07226562 C11.40628906 33.02939453 11.40242188 33.98652344 11.3984375 34.97265625 C11.39336182 36.27601929 11.39336182 36.27601929 11.38818359 37.60571289 C10.92670946 40.45205055 9.87805454 41.85369636 8 44 C8 42.35 8 40.7 8 39 C8.66 39 9.32 39 10 39 C9.91275184 36.10275937 9.80584073 33.20849865 9.6875 30.3125 C9.66494141 29.49587891 9.64238281 28.67925781 9.61914062 27.83789062 C9.40602309 23.05243316 8.91770322 19.97256516 6 16 C5.29788106 14.34795544 4.63028587 12.68076231 4 11 C3.62875 10.071875 3.2575 9.14375 2.875 8.1875 C2.58625 7.465625 2.2975 6.74375 2 6 C1.34 6 0.68 6 0 6 C0 4.02 0 2.04 0 0 Z " fill="#B7B7B7" transform="translate(335,102)"/>
<path d="M0 0 C1.6097168 0.01450195 1.6097168 0.01450195 3.25195312 0.02929688 C4.37150391 0.05443359 5.49105469 0.07957031 6.64453125 0.10546875 C7.77568359 0.11900391 8.90683594 0.13253906 10.07226562 0.14648438 C12.86766442 0.18186917 15.66211017 0.23123927 18.45703125 0.29296875 C18.45703125 0.95296875 18.45703125 1.61296875 18.45703125 2.29296875 C19.08351563 2.49792969 19.71 2.70289062 20.35546875 2.9140625 C21.17273438 3.18347656 21.99 3.45289062 22.83203125 3.73046875 C24.05019531 4.13072266 24.05019531 4.13072266 25.29296875 4.5390625 C27.45703125 5.29296875 27.45703125 5.29296875 29.45703125 6.29296875 C29.45703125 6.95296875 29.45703125 7.61296875 29.45703125 8.29296875 C26.31692554 7.29732548 23.45934082 6.29421045 20.55078125 4.73046875 C15.13246742 2.38537833 9.30864229 2.97711438 3.51953125 3.10546875 C2.35873047 3.11900391 1.19792969 3.13253906 0.00195312 3.14648438 C-2.84683927 3.18165465 -5.69465719 3.23087588 -8.54296875 3.29296875 C-5.97630373 -0.00376988 -4.07133561 -0.06462437 0 0 Z " fill="#4D4D4D" transform="translate(292.54296875,80.70703125)"/>
<path d="M0 0 C0.33 0 0.66 0 1 0 C1 1.65 1 3.3 1 5 C0.01 5 -0.98 5 -2 5 C-2 8.3 -2 11.6 -2 15 C-2.99 15 -3.98 15 -5 15 C-5.33 16.98 -5.66 18.96 -6 21 C-6.99 21 -7.98 21 -9 21 C-9.103125 22.11375 -9.20625 23.2275 -9.3125 24.375 C-9.6528125 26.169375 -9.6528125 26.169375 -10 28 C-10.99 28.66 -11.98 29.32 -13 30 C-12.55005243 28.20620902 -12.08975857 26.41501072 -11.625 24.625 C-11.36976563 23.62726563 -11.11453125 22.62953125 -10.8515625 21.6015625 C-10 19 -10 19 -8 17 C-7.7525 15.7315625 -7.7525 15.7315625 -7.5 14.4375 C-7.335 13.633125 -7.17 12.82875 -7 12 C-6.34 11.67 -5.68 11.34 -5 11 C-4.16688918 9.21709991 -4.16688918 9.21709991 -3.5 7.125 C-2.54807599 4.32096296 -1.68278772 2.52418158 0 0 Z " fill="#595959" transform="translate(433,269)"/>
<path d="M0 0 C0.5625 1.9375 0.5625 1.9375 1 4 C0.67 4.33 0.34 4.66 0 5 C-0.12375 6.258125 -0.2475 7.51625 -0.375 8.8125 C-0.77828133 12.40362423 -1.55614346 14.26288067 -4 17 C-4.69580267 18.31836295 -5.37224433 19.64791086 -6 21 C-6.99 21 -7.98 21 -9 21 C-9 23.31 -9 25.62 -9 28 C-9.99 27.67 -10.98 27.34 -12 27 C-10.3416382 22.27366888 -8.57789307 18.23273931 -5.9765625 13.93359375 C-4.40234249 10.81663812 -3.58792722 7.50539104 -2.7109375 4.13671875 C-2 2 -2 2 0 0 Z " fill="#3A3A3A" transform="translate(488,138)"/>
<path d="M0 0 C0.99 0.33 1.98 0.66 3 1 C2.52449439 2.48034764 2.04448784 3.95925021 1.5625 5.4375 C1.29566406 6.26121094 1.02882813 7.08492188 0.75390625 7.93359375 C0 10 0 10 -1 11 C-1.12375 12.2375 -1.2475 13.475 -1.375 14.75 C-1.81237348 18.53832726 -2.80495365 20.8293775 -5 24 C-5.73891392 25.26519074 -6.46773388 26.53631893 -7.1875 27.8125 C-7.785625 28.864375 -8.38375 29.91625 -9 31 C-9.33 31 -9.66 31 -10 31 C-10 29.02 -10 27.04 -10 25 C-9.01 25 -8.02 25 -7 25 C-7 22.69 -7 20.38 -7 18 C-6.01 17.67 -5.02 17.34 -4 17 C-3.67 14.36 -3.34 11.72 -3 9 C-2.34 9 -1.68 9 -1 9 C-0.67 6.03 -0.34 3.06 0 0 Z " fill="#DADADA" transform="translate(428,267)"/>
<path d="M0 0 C1.31079811 3.60678206 0.68377822 5.53159537 -0.8125 9 C-1.16957031 9.845625 -1.52664063 10.69125 -1.89453125 11.5625 C-2.88072155 13.73699733 -3.91268707 15.87457383 -5 18 C-5.66 18 -6.32 18 -7 18 C-7.103125 18.5775 -7.20625 19.155 -7.3125 19.75 C-8.09792798 22.32049158 -9.30504197 23.93657284 -11 26 C-11 23.69 -11 21.38 -11 19 C-10.01 18.67 -9.02 18.34 -8 18 C-8 15.69 -8 13.38 -8 11 C-6.68 11 -5.36 11 -4 11 C-3.896875 10.484375 -3.79375 9.96875 -3.6875 9.4375 C-2.75736134 6.13973565 -1.38604488 3.13366668 0 0 Z " fill="#4C4C4C" transform="translate(387,104)"/>
<path d="M0 0 C0 3.15860845 -0.52512704 4.40400285 -1.875 7.1875 C-3.29857673 10.2552076 -4.37861271 13.13894972 -5.125 16.4375 C-6 20 -6 20 -8 22 C-8.309375 22.78375 -8.61875 23.5675 -8.9375 24.375 C-9.99016897 26.97571158 -11.23678745 28.83605732 -13 31 C-12.67702486 29.33129513 -12.33986667 27.66534667 -12 26 C-11.85433594 25.24074219 -11.70867187 24.48148437 -11.55859375 23.69921875 C-11.39488281 22.89097656 -11.23117187 22.08273437 -11.0625 21.25 C-10.90910156 20.47140625 -10.75570313 19.6928125 -10.59765625 18.890625 C-10.40042969 18.26671875 -10.20320313 17.6428125 -10 17 C-9.34 16.67 -8.68 16.34 -8 16 C-7.26924352 13.6859378 -6.59861742 11.35171131 -6 9 C-5.34 9 -4.68 9 -4 9 C-3.71125 7.88625 -3.4225 6.7725 -3.125 5.625 C-2 2 -2 2 0 0 Z " fill="#606060" transform="translate(331,240)"/>
<path d="M0 0 C0.66 0 1.32 0 2 0 C1.83886719 0.71800781 1.67773438 1.43601562 1.51171875 2.17578125 C-0.26656209 11.9902625 0.6044781 22.52132273 6 31 C5.505 32.485 5.505 32.485 5 34 C-0.3071602 26.74688106 -1.31671038 20.03501107 -1.1875 11.1875 C-1.18685547 10.32962891 -1.18621094 9.47175781 -1.18554688 8.58789062 C-1.14089311 2.28178621 -1.14089311 2.28178621 0 0 Z " fill="#E6E6E6" transform="translate(252,122)"/>
<path d="M0 0 C7.90036278 3.45640872 14.04372406 11.34220013 17.3125 19.125 C17.99104137 21.96253664 18.03158701 23.31787377 17 26 C14.83912935 22.75869403 13.47562198 19.58628066 12.1875 15.9375 C10.37388227 11.22209389 8.42419754 9.54156029 4 7 C2.42148665 4.71387722 1.2371567 2.4743134 0 0 Z " fill="#7D7D7D" transform="translate(328,94)"/>
<path d="M0 0 C0.82707306 2.36988243 1.12634 3.61730731 0.328125 6.03515625 C-0.02765625 6.70417969 -0.3834375 7.37320313 -0.75 8.0625 C-1.09546875 8.73410156 -1.4409375 9.40570313 -1.796875 10.09765625 C-3.02266501 12.03583721 -4.36737415 13.40095 -6 15 C-6.86639158 16.24155802 -7.71980107 17.4922404 -8.5625 18.75 C-12.11570775 23.54994731 -16.61380621 27.37800797 -22 30 C-24.3046875 29.68359375 -24.3046875 29.68359375 -26 29 C-25.11570312 28.59394531 -24.23140625 28.18789062 -23.3203125 27.76953125 C-16.06054474 23.90050208 -10.21206087 18.02010146 -6 11 C-5.34 10.67 -4.68 10.34 -4 10 C-2.86897474 7.65961814 -2.86897474 7.65961814 -1.875 4.9375 C-1.34519531 3.55884766 -1.34519531 3.55884766 -0.8046875 2.15234375 C-0.53914063 1.44207031 -0.27359375 0.73179687 0 0 Z " fill="#919191" transform="translate(342,146)"/>
<path d="M0 0 C0.33 0 0.66 0 1 0 C1 1.98 1 3.96 1 6 C0.01 6.33 -0.98 6.66 -2 7 C-1.67 9.97 -1.34 12.94 -1 16 C-2.98 16.99 -2.98 16.99 -5 18 C-5 19.98 -5 21.96 -5 24 C-5.99 24 -6.98 24 -8 24 C-8.33 24.66 -8.66 25.32 -9 26 C-8.21549144 22.63993502 -7.06075277 19.51008282 -5.82421875 16.2890625 C-4.64097411 13.00289493 -3.69329899 9.65758059 -2.74609375 6.296875 C-2.0187676 4.05777669 -1.10800209 2.07334296 0 0 Z " fill="#353535" transform="translate(419,300)"/>
<path d="M0 0 C0.33 0 0.66 0 1 0 C1 2.64 1 5.28 1 8 C0.01 8.495 0.01 8.495 -1 9 C-4.0554547 13.82958969 -6.11036913 18.61455202 -8 24 C-8.66 24 -9.32 24 -10 24 C-8.28036878 16.93040498 -6.19998414 10.78543119 -2.0859375 4.7265625 C-0.82689732 2.87636244 -0.82689732 2.87636244 0 0 Z " fill="#B3B3B3" transform="translate(436,257)"/>
<path d="M0 0 C-0.89203125 0.37511719 -1.7840625 0.75023438 -2.703125 1.13671875 C-3.87359375 1.64847656 -5.0440625 2.16023438 -6.25 2.6875 C-7.41015625 3.18636719 -8.5703125 3.68523437 -9.765625 4.19921875 C-13.18449369 6.10271931 -14.76696541 7.83653433 -17 11 C-19.82989367 13.97138836 -22.64262569 16.63740327 -26 19 C-24.53333333 13.5 -24.53333333 13.5 -22 11.125 C-20 10 -20 10 -18 10 C-17.94714844 9.23171875 -17.89429688 8.4634375 -17.83984375 7.671875 C-17 5 -17 5 -14.56640625 3.453125 C-13.57511719 3.05609375 -12.58382813 2.6590625 -11.5625 2.25 C-10.07943359 1.63898438 -10.07943359 1.63898438 -8.56640625 1.015625 C-7.71949219 0.68046875 -6.87257813 0.3453125 -6 0 C-3.50907189 -1.24546405 -2.58919267 -0.7767578 0 0 Z " fill="#696969" transform="translate(284,85)"/>
<path d="M0 0 C0.99 0.33 1.98 0.66 3 1 C2.34 1 1.68 1 1 1 C0.88398438 1.58265625 0.76796875 2.1653125 0.6484375 2.765625 C-0.04203801 5.14485387 -0.98427818 6.71027466 -2.375 8.75 C-4.21809325 11.58103372 -5.57124708 14.2490237 -6.6875 17.4375 C-8 21 -8 21 -10 22 C-10 19.69 -10 17.38 -10 15 C-9.34 15 -8.68 15 -8 15 C-7.9071875 13.6696875 -7.9071875 13.6696875 -7.8125 12.3125 C-6.80841878 8.21893812 -5.04774567 6.82473989 -2 4 C-0.70480005 1.83379456 -0.70480005 1.83379456 0 0 Z " fill="#4C4C4C" transform="translate(259,97)"/>
<path d="M0 0 C0 3.78305096 -0.40583568 7.25676478 -1 11 C-1.66 11.66 -2.32 12.32 -3 13 C-3.78831287 14.99291139 -3.78831287 14.99291139 -4.4375 17.25 C-6.18844873 22.73161336 -8.36329625 27.4974144 -12 32 C-11.18022022 26.75340941 -9.371614 21.74322799 -7 17 C-6.34 17 -5.68 17 -5 17 C-5.061875 15.8553125 -5.061875 15.8553125 -5.125 14.6875 C-5 12 -5 12 -3 9 C-2.835 7.824375 -2.67 6.64875 -2.5 5.4375 C-2 2 -2 2 0 0 Z " fill="#575757" transform="translate(449,229)"/>
<path d="M0 0 C0.66 0 1.32 0 2 0 C2 1.98 2 3.96 2 6 C1.01 6.33 0.02 6.66 -1 7 C-1.33 9.31 -1.66 11.62 -2 14 C-2.99 14 -3.98 14 -5 14 C-5.33 14.66 -5.66 15.32 -6 16 C-6.17942163 12.05272412 -6.09350689 9.4019487 -4 6 C-3.34 6 -2.68 6 -2 6 C-1.855625 5.38125 -1.71125 4.7625 -1.5625 4.125 C-1 2 -1 2 0 0 Z " fill="#D1D1D1" transform="translate(384,116)"/>
<path d="M0 0 C1.32 0 2.64 0 4 0 C4 0.66 4 1.32 4 2 C-6.86452518 6.78604548 -18.47511955 6.1944554 -30 5 C-30 4.67 -30 4.34 -30 4 C-29.40050537 3.97494385 -28.80101074 3.9498877 -28.18334961 3.92407227 C-25.43456676 3.80714227 -22.68604625 3.68486053 -19.9375 3.5625 C-18.99455078 3.52318359 -18.05160156 3.48386719 -17.08007812 3.44335938 C-7.8283827 3.62084446 -7.8283827 3.62084446 0 0 Z " fill="#303030" transform="translate(316,176)"/>
<path d="M0 0 C1.98 0.66 3.96 1.32 6 2 C6 2.66 6 3.32 6 4 C6.556875 4.04125 7.11375 4.0825 7.6875 4.125 C11.25675176 5.47552769 12.79869784 7.96577269 15 11 C15.64453125 13.19921875 15.64453125 13.19921875 16 15 C11.99513132 11.59160112 8.01406295 8.15762253 4.0625 4.6875 C3.29035156 4.01074219 2.51820313 3.33398438 1.72265625 2.63671875 C1.15417969 2.09660156 0.58570313 1.55648437 0 1 C0 0.67 0 0.34 0 0 Z " fill="#434343" transform="translate(324,89)"/>
<path d="M0 0 C0.625 1.8125 0.625 1.8125 1 4 C0.01 5.485 0.01 5.485 -1 7 C-1.38117636 9.17975304 -1.38117636 9.17975304 -1.5 11.5 C-1.73196335 14.97945019 -1.9701081 15.95516215 -4 19 C-4.38499891 20.65549531 -4.72793135 22.3222433 -5 24 C-5.66 24 -6.32 24 -7 24 C-6.25 16.25 -6.25 16.25 -4 14 C-3.53709779 11.33757179 -3.53709779 11.33757179 -3.375 8.375 C-3.30023438 7.37210938 -3.22546875 6.36921875 -3.1484375 5.3359375 C-3.09945313 4.56507813 -3.05046875 3.79421875 -3 3 C-2.01 3 -1.02 3 0 3 C0 2.01 0 1.02 0 0 Z " fill="#9D9D9D" transform="translate(449,222)"/>
<path d="M0 0 C0.99 0 1.98 0 3 0 C2.6875 1.9375 2.6875 1.9375 2 4 C1.01 4.33 0.02 4.66 -1 5 C-1 5.66 -1 6.32 -1 7 C-1.969375 7.28875 -2.93875 7.5775 -3.9375 7.875 C-7.10664203 8.64214682 -7.10664203 8.64214682 -8 11 C-9.32 10.67 -10.64 10.34 -12 10 C-10.71283353 8.99421411 -9.42011342 7.99553202 -8.125 7 C-7.40570313 6.443125 -6.68640625 5.88625 -5.9453125 5.3125 C-4 4 -4 4 -2 4 C-1.34 2.68 -0.68 1.36 0 0 Z " fill="#373737" transform="translate(332,165)"/>
<path d="M0 0 C0.99 0.33 1.98 0.66 3 1 C3 1.66 3 2.32 3 3 C3.66 3.103125 4.32 3.20625 5 3.3125 C8.83841009 4.19213564 12.33096691 5.56969896 16 7 C16 7.66 16 8.32 16 9 C17.98 9 19.96 9 22 9 C22 9.33 22 9.66 22 10 C16.06997733 10.37851209 11.52760359 9.10575375 6 7 C6 6.34 6 5.68 6 5 C4.35 4.67 2.7 4.34 1 4 C0.67 2.68 0.34 1.36 0 0 Z " fill="#898989" transform="translate(268,168)"/>
<path d="M0 0 C0.64453125 1.76171875 0.64453125 1.76171875 1 4 C0.07421875 5.89453125 0.07421875 5.89453125 -1.3125 7.8125 C-3.75527435 11.44292155 -4.95114842 14.72391279 -6 19 C-6.64199649 20.67632417 -7.29894157 22.34750513 -8 24 C-8.33 24 -8.66 24 -9 24 C-9 21.69 -9 19.38 -9 17 C-8.34 17 -7.68 17 -7 17 C-6.87882812 16.36191406 -6.75765625 15.72382813 -6.6328125 15.06640625 C-6.46523438 14.24011719 -6.29765625 13.41382813 -6.125 12.5625 C-5.88136719 11.32693359 -5.88136719 11.32693359 -5.6328125 10.06640625 C-5.42398437 9.38449219 -5.21515625 8.70257813 -5 8 C-4.34 7.67 -3.68 7.34 -3 7 C-1.94647157 4.69034152 -0.94280904 2.3570226 0 0 Z " fill="#939393" transform="translate(483,146)"/>
<path d="M0 0 C0.66 0 1.32 0 2 0 C2 0.99 2 1.98 2 3 C1.01 3 0.02 3 -1 3 C-1 5.31 -1 7.62 -1 10 C-1.99 10.33 -2.98 10.66 -4 11 C-4.33 12.98 -4.66 14.96 -5 17 C-5.99 16.67 -6.98 16.34 -8 16 C-6.94995421 11.71904411 -6.24652475 8.97598102 -3 6 C-2.29289322 4.35008418 -1.62056011 2.68437744 -1 1 C-0.67 0.67 -0.34 0.34 0 0 Z " fill="#C6C6C6" transform="translate(307,301)"/>
<path d="M0 0 C0.625 1.8125 0.625 1.8125 1 4 C0.01 5.485 0.01 5.485 -1 7 C-1.68939809 9.32671854 -2.35466922 11.66067594 -3 14 C-3.64199649 15.67632417 -4.29894157 17.34750513 -5 19 C-5.33 19 -5.66 19 -6 19 C-6 16.69 -6 14.38 -6 12 C-5.01 11.67 -4.02 11.34 -3 11 C-3.061875 9.9275 -3.12375 8.855 -3.1875 7.75 C-2.99456691 3.89133813 -2.60334924 2.71182212 0 0 Z " fill="#CCCCCC" transform="translate(504,93)"/>
<path d="M0 0 C0 3.15860845 -0.52512704 4.40400285 -1.875 7.1875 C-3.3110794 10.27709336 -4.38213114 13.17506275 -5.125 16.5 C-5.41375 17.655 -5.7025 18.81 -6 20 C-6.66 20.33 -7.32 20.66 -8 21 C-7.69163768 18.87439563 -7.37818386 16.74952935 -7.0625 14.625 C-6.88847656 13.44164062 -6.71445312 12.25828125 -6.53515625 11.0390625 C-6 8 -6 8 -5 6 C-4.34 6 -3.68 6 -3 6 C-2.690625 5.195625 -2.38125 4.39125 -2.0625 3.5625 C-1 1 -1 1 0 0 Z " fill="#A6A6A6" transform="translate(421,294)"/>
<path d="M0 0 C0.66 0 1.32 0 2 0 C1.67 1.98 1.34 3.96 1 6 C0.34 6 -0.32 6 -1 6 C-0.938125 7.03125 -0.87625 8.0625 -0.8125 9.125 C-1.01135595 13.23468973 -1.94467803 15.48882496 -4 19 C-4.33 19 -4.66 19 -5 19 C-5 16.69 -5 14.38 -5 12 C-4.01 11.67 -3.02 11.34 -2 11 C-2.04125 9.741875 -2.0825 8.48375 -2.125 7.1875 C-2.2390374 3.70935927 -2.05925681 3.08888522 0 0 Z " fill="#CDCDCD" transform="translate(475,157)"/>
<path d="M0 0 C0 2.92849051 -0.43409485 4.85914993 -1.3125 7.625 C-1.55613281 8.42164063 -1.79976563 9.21828125 -2.05078125 10.0390625 C-2.52064453 11.00972656 -2.52064453 11.00972656 -3 12 C-3.99 12.33 -4.98 12.66 -6 13 C-5.938125 13.94875 -5.87625 14.8975 -5.8125 15.875 C-5.874375 16.90625 -5.93625 17.9375 -6 19 C-6.99 19.66 -7.98 20.32 -9 21 C-7.93951803 14.84641386 -6.34770964 10.27517883 -3 5 C-2.4225 4.030625 -1.845 3.06125 -1.25 2.0625 C-0.8375 1.381875 -0.425 0.70125 0 0 Z " fill="#707070" transform="translate(307,297)"/>
<path d="M0 0 C0.6875 1.75 0.6875 1.75 1 4 C0.05377841 5.37202131 -0.95884159 6.69855198 -2 8 C-2.495 9.175625 -2.99 10.35125 -3.5 11.5625 C-4.83512855 14.6221696 -5.64514335 15.84792267 -8 18 C-7.74476126 16.37247769 -7.47025506 14.74796804 -7.1875 13.125 C-7.03667969 12.22007812 -6.88585937 11.31515625 -6.73046875 10.3828125 C-6 8 -6 8 -3 6 C-1.93753473 4.03247172 -0.92862192 2.03412421 0 0 Z " fill="#979797" transform="translate(473,170)"/>
<path d="M0 0 C0 2.71667004 -0.28141427 4.97388911 -0.8125 7.625 C-0.96332031 8.42164063 -1.11414063 9.21828125 -1.26953125 10.0390625 C-1.51058594 10.68617188 -1.75164062 11.33328125 -2 12 C-2.99 12.33 -3.98 12.66 -5 13 C-6.20882096 15.00016466 -6.20882096 15.00016466 -7 17 C-6.5020163 13.26512223 -6.12508244 11.18762365 -4 8 C-3.67 6.989375 -3.34 5.97875 -3 4.9375 C-2 2 -2 2 0 0 Z " fill="#C2C2C2" transform="translate(377,134)"/>
<path d="M0 0 C3.81927559 2.37058485 5.39265334 4.82089868 7 9 C7.1875 12.875 7.1875 12.875 7 16 C6.71125 15.38125 6.4225 14.7625 6.125 14.125 C5.06279958 11.86674235 5.06279958 11.86674235 3 10 C2.30251417 8.68252676 1.63040043 7.35085807 1 6 C0.67 6 0.34 6 0 6 C0 4.02 0 2.04 0 0 Z " fill="#D5D5D5" transform="translate(335,102)"/>
<path d="M0 0 C0.66 0.33 1.32 0.66 2 1 C1.34 1.66 0.68 2.32 0 3 C-0.144375 3.680625 -0.28875 4.36125 -0.4375 5.0625 C-0.623125 5.701875 -0.80875 6.34125 -1 7 C-1.99 7.33 -2.98 7.66 -4 8 C-4.33 8.66 -4.66 9.32 -5 10 C-5.99 10 -6.98 10 -8 10 C-8.103125 10.5775 -8.20625 11.155 -8.3125 11.75 C-9.09792798 14.32049158 -10.30504197 15.93657284 -12 18 C-11.04460628 11.31224397 -7.80480608 7.56456577 -3 3 C-2.401875 2.401875 -1.80375 1.80375 -1.1875 1.1875 C-0.795625 0.795625 -0.40375 0.40375 0 0 Z " fill="#B5B5B5" transform="translate(265,96)"/>
<path d="M0 0 C0 3.92726842 -1.42705037 7.04216651 -2.875 10.625 C-3.27912109 11.66527344 -3.27912109 11.66527344 -3.69140625 12.7265625 C-5.7534913 17.87674565 -5.7534913 17.87674565 -8 19 C-7.34 15.04 -6.68 11.08 -6 7 C-5.01 7 -4.02 7 -3 7 C-2.814375 5.824375 -2.814375 5.824375 -2.625 4.625 C-2 2 -2 2 0 0 Z " fill="#606060" transform="translate(348,198)"/>
<path d="M0 0 C1.16660156 0.00322266 2.33320313 0.00644531 3.53515625 0.00976562 C4.75847656 0.01814453 5.98179687 0.02652344 7.2421875 0.03515625 C8.47324219 0.03966797 9.70429688 0.04417969 10.97265625 0.04882812 C14.02088142 0.06064295 17.06901064 0.07711597 20.1171875 0.09765625 C20.1171875 0.42765625 20.1171875 0.75765625 20.1171875 1.09765625 C19.06591675 1.12738525 19.06591675 1.12738525 17.9934082 1.15771484 C14.80513588 1.25321791 11.61749603 1.36279496 8.4296875 1.47265625 C7.32689453 1.50359375 6.22410156 1.53453125 5.08789062 1.56640625 C3.4878418 1.62441406 3.4878418 1.62441406 1.85546875 1.68359375 C0.87618408 1.71501465 -0.10310059 1.74643555 -1.11206055 1.77880859 C-4.00704051 2.11195194 -6.24053417 2.89566212 -8.8828125 4.09765625 C-8.5528125 3.10765625 -8.2228125 2.11765625 -7.8828125 1.09765625 C-5.16879956 -0.25935022 -3.03434934 -0.01472985 0 0 Z " fill="#252525" transform="translate(290.8828125,79.90234375)"/>
<path d="M0 0 C0.33 0 0.66 0 1 0 C1 1.98 1 3.96 1 6 C0.01 6.495 0.01 6.495 -1 7 C-1.19431765 9.04033535 -1.38857488 11.08067656 -1.58203125 13.12109375 C-2 15 -2 15 -4.0625 16.5 C-5.0215625 16.7475 -5.0215625 16.7475 -6 17 C-5.67 15.35 -5.34 13.7 -5 12 C-4.34 12 -3.68 12 -3 12 C-3.061875 11.13375 -3.12375 10.2675 -3.1875 9.375 C-2.97544498 5.55800967 -1.87955693 3.28922464 0 0 Z " fill="#3E3E3E" transform="translate(471,177)"/>
<path d="M0 0 C4.62 0 9.24 0 14 0 C14 2.64 14 5.28 14 8 C13.01 8 12.02 8 11 8 C10.67 8.99 10.34 9.98 10 11 C10.66666667 7.66666667 11.33333333 4.33333333 12 1 C8.04 1 4.08 1 0 1 C0 0.67 0 0.34 0 0 Z " fill="#616161" transform="translate(496,85)"/>
<path d="M0 0 C0.625 1.875 0.625 1.875 1 4 C0.34 4.66 -0.32 5.32 -1 6 C-1 7.32 -1 8.64 -1 10 C-0.01 10.66 0.98 11.32 2 12 C-2.875 11.125 -2.875 11.125 -4 10 C-4.14115161 7.32941149 -4.04247107 4.67567762 -4 2 C-2.68 2 -1.36 2 0 2 C0 1.34 0 0.68 0 0 Z " fill="#3F3F3F" transform="translate(297,318)"/>
<path d="M0 0 C7.875 0.875 7.875 0.875 9 2 C11.52596259 2.23653523 14.03107207 2.42173692 16.5625 2.5625 C17.27341797 2.60568359 17.98433594 2.64886719 18.71679688 2.69335938 C20.47761912 2.79971777 22.2387832 2.90038846 24 3 C24 3.33 24 3.66 24 4 C21.45826023 4.02716824 18.91681585 4.04691969 16.375 4.0625 C15.30572266 4.07506836 15.30572266 4.07506836 14.21484375 4.08789062 C10.02655562 4.10710296 6.1271538 3.8267327 2 3 C2 2.34 2 1.68 2 1 C1.34 0.67 0.68 0.34 0 0 Z " fill="#C8C8C8" transform="translate(282,174)"/>
<path d="M0 0 C0.33 0 0.66 0 1 0 C1 2.31 1 4.62 1 7 C0.01 7.33 -0.98 7.66 -2 8 C-2 9.65 -2 11.3 -2 13 C-2.99 13.33 -3.98 13.66 -5 14 C-4.32829194 10.1936543 -3.27253436 6.64793184 -2 3 C-1.34 3 -0.68 3 0 3 C0 2.01 0 1.02 0 0 Z " fill="#C4C4C4" transform="translate(367,156)"/>
<path d="M0 0 C0 3.16680795 -0.27802668 5.91520491 -1 9 C-1.99 9.66 -2.98 10.32 -4 11 C-5.19232613 13.05003955 -5.19232613 13.05003955 -6 15 C-6 12.36 -6 9.72 -6 7 C-5.01 7 -4.02 7 -3 7 C-3.061875 6.21625 -3.12375 5.4325 -3.1875 4.625 C-3.125625 3.75875 -3.06375 2.8925 -3 2 C-2.01 1.34 -1.02 0.68 0 0 Z " fill="#C0C0C0" transform="translate(497,112)"/>
<path d="M0 0 C0.33 1.32 0.66 2.64 1 4 C0.34 4 -0.32 4 -1 4 C-1.33 6.97 -1.66 9.94 -2 13 C-2.66 13 -3.32 13 -4 13 C-4.33 13.66 -4.66 14.32 -5 15 C-5.67504305 9.76841633 -3.33387722 5.53653243 -1 1 C-0.67 0.67 -0.34 0.34 0 0 Z " fill="#D6D6D6" transform="translate(318,275)"/>
<path d="M0 0 C1.1700097 3.91736581 0.69584017 6.97959015 0 11 C-0.99 11.33 -1.98 11.66 -3 12 C-2.938125 12.78375 -2.87625 13.5675 -2.8125 14.375 C-2.874375 15.24125 -2.93625 16.1075 -3 17 C-3.99 17.66 -4.98 18.32 -6 19 C-5.72736328 18.19949219 -5.72736328 18.19949219 -5.44921875 17.3828125 C-3.5063945 11.62408217 -1.71615568 5.83006078 0 0 Z " fill="#9A9A9A" transform="translate(336,226)"/>
<path d="M0 0 C0.33 0 0.66 0 1 0 C1.125 7.75 1.125 7.75 0 10 C-0.66 10 -1.32 10 -2 10 C-2.33 11.98 -2.66 13.96 -3 16 C-3.99 15.67 -4.98 15.34 -6 15 C-5.34 14.01 -4.68 13.02 -4 12 C-3.29373761 10.01363702 -2.63106429 8.01151741 -2 6 C-1.33333333 4 -0.66666667 2 0 0 Z " fill="#DADADA" transform="translate(333,238)"/>
<path d="M0 0 C0.99 0.33 1.98 0.66 3 1 C2.67 1.33 2.34 1.66 2 2 C1.87625 3.134375 1.7525 4.26875 1.625 5.4375 C1.41875 6.613125 1.2125 7.78875 1 9 C0.01 9.66 -0.98 10.32 -2 11 C-3.19232613 13.05003955 -3.19232613 13.05003955 -4 15 C-4 12.69 -4 10.38 -4 8 C-3.01 8 -2.02 8 -1 8 C-0.67 5.36 -0.34 2.72 0 0 Z " fill="#464646" transform="translate(363,156)"/>
<path d="M0 0 C-2.37524249 2.75028078 -4.6159924 3.76194844 -8 5 C-9.34050052 5.65213539 -10.67661368 6.31379969 -12 7 C-11.23883449 5.84772177 -10.46567307 4.7033614 -9.6875 3.5625 C-9.25824219 2.92441406 -8.82898438 2.28632812 -8.38671875 1.62890625 C-5.80316199 -1.40586324 -3.49301157 -1.08403807 0 0 Z " fill="#B0B0B0" transform="translate(279,89)"/>
<path d="M0 0 C2.37570543 -0.0816082 4.74855841 -0.14077222 7.125 -0.1875 C7.79015625 -0.21263672 8.4553125 -0.23777344 9.140625 -0.26367188 C13.86902292 -0.33320714 16.95121479 0.59721625 21 3 C19.25 3.625 19.25 3.625 17 4 C16.4328125 3.690625 15.865625 3.38125 15.28125 3.0625 C12.25421247 1.6526469 9.57263107 1.57435786 6.25 1.375 C4.49429687 1.26285156 4.49429687 1.26285156 2.703125 1.1484375 C1.81109375 1.09945312 0.9190625 1.05046875 0 1 C0 0.67 0 0.34 0 0 Z " fill="#D3D3D3" transform="translate(294,85)"/>
<path d="M0 0 C0.6875 1.625 0.6875 1.625 1 4 C0.0520411 6.02518491 -0.95191959 8.02477154 -2 10 C-2.69907414 12.73572585 -2.69907414 12.73572585 -3 15 C-3.99 15.33 -4.98 15.66 -6 16 C-5.57448104 14.08063787 -5.13408062 12.16457126 -4.6875 10.25 C-4.32205078 8.64898437 -4.32205078 8.64898437 -3.94921875 7.015625 C-3.0245175 4.07789099 -1.99907642 2.30705738 0 0 Z " fill="#989898" transform="translate(353,187)"/>
<path d="M0 0 C0.99 0 1.98 0 3 0 C3 1.32 3 2.64 3 4 C2.34 4 1.68 4 1 4 C0.67 6.31 0.34 8.62 0 11 C-0.99 11.33 -1.98 11.66 -3 12 C-2.01 8.04 -1.02 4.08 0 0 Z " fill="#4E4E4E" transform="translate(391,90)"/>
<path d="M0 0 C0.33 0 0.66 0 1 0 C1 1.98 1 3.96 1 6 C0.01 6.33 -0.98 6.66 -2 7 C-2 8.98 -2 10.96 -2 13 C-3.32 12.67 -4.64 12.34 -6 12 C-4.6875 9.0625 -4.6875 9.0625 -3 6 C-2.01 5.67 -1.02 5.34 0 5 C0 3.35 0 1.7 0 0 Z " fill="#CBCBCB" transform="translate(350,197)"/>
<path d="M0 0 C1 3 1 3 0.328125 5.0078125 C-0.02765625 5.70648438 -0.3834375 6.40515625 -0.75 7.125 C-1.26820313 8.18074219 -1.26820313 8.18074219 -1.796875 9.2578125 C-3 11 -3 11 -6 12 C-5.29445932 8.33118845 -3.72264494 5.29549466 -2 2 C-1.34 2 -0.68 2 0 2 C0 1.34 0 0.68 0 0 Z " fill="#E2E2E2" transform="translate(341,146)"/>
<path d="M0 0 C0.33 0 0.66 0 1 0 C1 1.65 1 3.3 1 5 C0.01 5.495 0.01 5.495 -1 6 C-1.12375 7.134375 -1.2475 8.26875 -1.375 9.4375 C-1.58125 10.613125 -1.7875 11.78875 -2 13 C-4.0625 14.4375 -4.0625 14.4375 -6 15 C-5.67 13.68 -5.34 12.36 -5 11 C-4.34 11 -3.68 11 -3 11 C-3.020625 10.05125 -3.04125 9.1025 -3.0625 8.125 C-3 5 -3 5 -2 3 C-1.34 3 -0.68 3 0 3 C0 2.01 0 1.02 0 0 Z " fill="#E8E8E8" transform="translate(500,99)"/>
<path d="M0 0 C0.99 0.33 1.98 0.66 3 1 C2.21658881 2.98244892 1.42302514 4.96088859 0.625 6.9375 C0.18414062 8.03964844 -0.25671875 9.14179687 -0.7109375 10.27734375 C-2 13 -2 13 -4 14 C-4.37169941 9.6635069 -3.31392722 7.60972647 -1 4 C-0.30420546 1.80869466 -0.30420546 1.80869466 0 0 Z " fill="#2E2E2E" transform="translate(387,98)"/>
<path d="M0 0 C0.33 0 0.66 0 1 0 C1 2.64 1 5.28 1 8 C0.01 8.495 0.01 8.495 -1 9 C-2.13350534 11.01669827 -2.13350534 11.01669827 -3 13 C-3.93045933 10.44855176 -4.08564091 9.25993522 -3.22265625 6.640625 C-2.83980469 5.85171875 -2.45695312 5.0628125 -2.0625 4.25 C-1.68222656 3.45078125 -1.30195313 2.6515625 -0.91015625 1.828125 C-0.60980469 1.22484375 -0.30945313 0.6215625 0 0 Z " fill="#898989" transform="translate(436,257)"/>
<path d="M0 0 C0.99 0 1.98 0 3 0 C2.2561849 4.09098304 1.338114 8.05999767 0 12 C-0.99 12.66 -1.98 13.32 -3 14 C-2.5359375 13.0409375 -2.5359375 13.0409375 -2.0625 12.0625 C-0.68064597 8.07950896 -0.3463457 4.18349151 0 0 Z " fill="#BBBBBB" transform="translate(460,192)"/>
<path d="M0 0 C3.23859087 1.61929544 3.67660913 4.74666411 5 8 C5.61875 9.11375 5.61875 9.11375 6.25 10.25 C7 12 7 12 6 15 C2.30912706 10.20186518 1.00332648 5.94074887 0 0 Z " fill="#C5C5C5" transform="translate(251,141)"/>
<path d="M0 0 C2.64 0 5.28 0 8 0 C8 0.99 8 1.98 8 3 C8.99 3 9.98 3 11 3 C11 3.66 11 4.32 11 5 C11.66 5.33 12.32 5.66 13 6 C11.68 6 10.36 6 9 6 C9 5.34 9 4.68 9 4 C6.03 3.01 3.06 2.02 0 1 C0 0.67 0 0.34 0 0 Z " fill="#2C2C2C" transform="translate(313,83)"/>
<path d="M0 0 C0.33 0 0.66 0 1 0 C1.3125 3.1875 1.3125 3.1875 1 7 C-1.5 9.9375 -1.5 9.9375 -4 12 C-2.66666667 8 -1.33333333 4 0 0 Z " fill="#3F3F3F" transform="translate(454,217)"/>
<path d="M0 0 C0.66 0 1.32 0 2 0 C1.71890887 1.64767247 1.42481474 3.29313145 1.125 4.9375 C0.96257812 5.85402344 0.80015625 6.77054688 0.6328125 7.71484375 C0.42398437 8.46894531 0.21515625 9.22304687 0 10 C-0.99 10.495 -0.99 10.495 -2 11 C-2 8.36 -2 5.72 -2 3 C-1.34 3 -0.68 3 0 3 C0 2.01 0 1.02 0 0 Z " fill="#4D4D4D" transform="translate(334,226)"/>
<path d="M0 0 C0.66 0 1.32 0 2 0 C0.81819916 5.02265357 -0.44992282 8.0949151 -4 12 C-4.1875 9.125 -4.1875 9.125 -4 6 C-3.01 5.34 -2.02 4.68 -1 4 C-0.27617533 1.94074861 -0.27617533 1.94074861 0 0 Z " fill="#484848" transform="translate(353,182)"/>
<path d="M0 0 C8.19256018 0.19256018 8.19256018 0.19256018 11.5625 3.5625 C12.036875 4.366875 12.51125 5.17125 13 6 C8.52761347 4.58192622 4.28853694 2.88695626 0 1 C0 0.67 0 0.34 0 0 Z " fill="#9F9F9F" transform="translate(315,88)"/>
<path d="M0 0 C0.75 1.5625 0.75 1.5625 1 4 C-0.13084437 6.50286409 -1.52139516 8.67007722 -3 11 C-3.33 11 -3.66 11 -4 11 C-4.56638908 6.18569279 -2.82561627 3.79692186 0 0 Z " fill="#858585" transform="translate(412,315)"/>
<path d="M0 0 C0.33 0.66 0.66 1.32 1 2 C0.06553465 4.03144641 -0.93224776 6.03533587 -2 8 C-3.32 7.67 -4.64 7.34 -6 7 C-2.25 1.125 -2.25 1.125 0 0 Z " fill="#5A5A5A" transform="translate(339,157)"/>
<path d="M0 0 C0.33 0 0.66 0 1 0 C1.39253254 4.44870215 0.15305957 7.14243493 -2 11 C-2.66 11 -3.32 11 -4 11 C-4.33 11.66 -4.66 12.32 -5 13 C-4.32116957 9.88452559 -3.25893098 7.14862279 -1.9375 4.25 C-1.57527344 3.45078125 -1.21304687 2.6515625 -0.83984375 1.828125 C-0.56269531 1.22484375 -0.28554688 0.6215625 0 0 Z " fill="#868686" transform="translate(369,148)"/>
<path d="M0 0 C4.19360449 0.67097672 7.40334352 2.8558394 11 5 C10.01 5.495 10.01 5.495 9 6 C6.8359375 5.22265625 6.8359375 5.22265625 4.375 4.0625 C3.55773437 3.68222656 2.74046875 3.30195312 1.8984375 2.91015625 C1.27195312 2.60980469 0.64546875 2.30945313 0 2 C0 1.34 0 0.68 0 0 Z " fill="#D6D6D6" transform="translate(318,90)"/>
<path d="M0 0 C4.97306516 0.49730652 8.63799813 1.55302334 13 4 C13 4.66 13 5.32 13 6 C8.52761347 4.58192622 4.28853694 2.88695626 0 1 C0 0.67 0 0.34 0 0 Z " fill="#5D5D5D" transform="translate(309,83)"/>
<path d="M0 0 C0.33 0 0.66 0 1 0 C1.63019694 9.17286652 1.63019694 9.17286652 -1 12.625 C-1.66 13.07875 -2.32 13.5325 -3 14 C-3 12.35 -3 10.7 -3 9 C-2.34 8.67 -1.68 8.34 -1 8 C-0.53476937 6.10466658 -0.53476937 6.10466658 -0.375 3.9375 C-0.25125 2.638125 -0.1275 1.33875 0 0 Z " fill="#303030" transform="translate(331,230)"/>
<path d="M0 0 C0.33 0 0.66 0 1 0 C1.36923077 6.52307692 1.36923077 6.52307692 -0.5 8.9375 C-0.995 9.288125 -1.49 9.63875 -2 10 C-2 7.69 -2 5.38 -2 3 C-1.34 3 -0.68 3 0 3 C0 2.01 0 1.02 0 0 Z " fill="#393939" transform="translate(251,109)"/>
<path d="M0 0 C0.99 0.33 1.98 0.66 3 1 C0.36 2.98 -2.28 4.96 -5 7 C-5.33 6.01 -5.66 5.02 -6 4 C-4.35 3.67 -2.7 3.34 -1 3 C-0.67 2.01 -0.34 1.02 0 0 Z " fill="#DDDDDD" transform="translate(329,163)"/>
<path d="M0 0 C0.33 0 0.66 0 1 0 C1 2.64 1 5.28 1 8 C0.34 8 -0.32 8 -1 8 C-1.33 8.66 -1.66 9.32 -2 10 C-2.17942163 6.05272412 -2.09350689 3.4019487 0 0 Z " fill="#A0A0A0" transform="translate(380,122)"/>
<path d="M0 0 C0.33 1.32 0.66 2.64 1 4 C0.34 4 -0.32 4 -1 4 C-1.33 5.32 -1.66 6.64 -2 8 C-2.33 8 -2.66 8 -3 8 C-3.1875 5.125 -3.1875 5.125 -3 2 C-2.01 1.34 -1.02 0.68 0 0 Z " fill="#616161" transform="translate(505,98)"/>
<path d="M0 0 C0.33 0 0.66 0 1 0 C1 1.98 1 3.96 1 6 C0.01 6.33 -0.98 6.66 -2 7 C-2.33 7.99 -2.66 8.98 -3 10 C-2.49287967 6.28111761 -1.88391785 3.26545761 0 0 Z " fill="#5D5D5D" transform="translate(419,300)"/>
<path d="M0 0 C0.6875 1.6875 0.6875 1.6875 1 4 C-0.375 6.75 -0.375 6.75 -2 9 C-2.33 9 -2.66 9 -3 9 C-3.26218749 5.85375007 -3.24754367 4.38162983 -1.5 1.6875 C-1.005 1.130625 -0.51 0.57375 0 0 Z " fill="#2B2B2B" transform="translate(451,228)"/>
<path d="M0 0 C0.6875 1.625 0.6875 1.625 1 4 C-0.4375 7.25 -0.4375 7.25 -2 10 C-2.33 10 -2.66 10 -3 10 C-3 7.69 -3 5.38 -3 3 C-2.01 3 -1.02 3 0 3 C0 2.01 0 1.02 0 0 Z " fill="#CBCBCB" transform="translate(449,222)"/>
<path d="M0 0 C0.33 0 0.66 0 1 0 C1 2.64 1 5.28 1 8 C-0.32 8.33 -1.64 8.66 -3 9 C-2.01 6.03 -1.02 3.06 0 0 Z " fill="#B2B2B2" transform="translate(343,210)"/>
<path d="M0 0 C0.66 0 1.32 0 2 0 C1.67 1.98 1.34 3.96 1 6 C0.34 6 -0.32 6 -1 6 C-1.33 6.66 -1.66 7.32 -2 8 C-2.20086443 4.28400809 -2.1519437 3.22791555 0 0 Z " fill="#E4E4E4" transform="translate(475,157)"/>
<path d="M0 0 C0.33 0 0.66 0 1 0 C0.25 6.625 0.25 6.625 -2 10 C-2.25 3.375 -2.25 3.375 0 0 Z " fill="#373737" transform="translate(368,145)"/>
<path d="M0 0 C0.75 1.625 0.75 1.625 1 4 C-0.9375 7.25 -0.9375 7.25 -3 10 C-3.33 9.34 -3.66 8.68 -4 8 C-1.48571429 1.48571429 -1.48571429 1.48571429 0 0 Z " fill="#515151" transform="translate(488,138)"/>
<path d="M0 0 C0.99 0 1.98 0 3 0 C1.25 5.75 1.25 5.75 -1 8 C-1.04241723 5.66705225 -1.04092937 3.33297433 -1 1 C-0.67 0.67 -0.34 0.34 0 0 Z " fill="#AAAAAA" transform="translate(499,104)"/>
<path d="M0 0 C2.86207152 1.28299758 5.0245088 2.530636 7 5 C7 5.99 7 6.98 7 8 C3.23558416 6.74519472 2.82680543 5.40450103 1 2 C0.67 1.34 0.34 0.68 0 0 Z " fill="#A1A1A1" transform="translate(328,94)"/>
<path d="M0 0 C0.33 0 0.66 0 1 0 C1 2.64 1 5.28 1 8 C-0.32 7.67 -1.64 7.34 -3 7 C-2.67 6.01 -2.34 5.02 -2 4 C-1.34 4 -0.68 4 0 4 C0 2.68 0 1.36 0 0 Z " fill="#2B2B2B" transform="translate(437,261)"/>
<path d="M0 0 C0.33 0 0.66 0 1 0 C0.51171875 6.0546875 0.51171875 6.0546875 0 8 C-0.99 8.66 -1.98 9.32 -3 10 C-2.39009109 6.44219804 -1.4216319 3.3171411 0 0 Z " fill="#EEEEEE" transform="translate(337,232)"/>
<path d="M0 0 C0.33 0 0.66 0 1 0 C1.29296875 6.0546875 1.29296875 6.0546875 1 8 C0.01 8.66 -0.98 9.32 -2 10 C-2 8.35 -2 6.7 -2 5 C-1.34 5 -0.68 5 0 5 C0 3.35 0 1.7 0 0 Z " fill="#2F2F2F" transform="translate(461,201)"/>
<path d="M0 0 C0.99 0 1.98 0 3 0 C2.6875 1.875 2.6875 1.875 2 4 C1.01 4.66 0.02 5.32 -1 6 C-1.042721 4.33388095 -1.04063832 2.66617115 -1 1 C-0.67 0.67 -0.34 0.34 0 0 Z " fill="#333333" transform="translate(346,195)"/>
<path d="M0 0 C0.625 1.8125 0.625 1.8125 1 4 C0.01 5.485 0.01 5.485 -1 7 C-1.66 7 -2.32 7 -3 7 C-2.25 2.25 -2.25 2.25 0 0 Z " fill="#DFDFDF" transform="translate(354,190)"/>
<path d="M0 0 C0.33 0 0.66 0 1 0 C0.88637738 1.4800841 0.75877092 2.95910074 0.625 4.4375 C0.52058594 5.67306641 0.52058594 5.67306641 0.4140625 6.93359375 C0.27742188 7.61550781 0.14078125 8.29742187 0 9 C-0.99 9.495 -0.99 9.495 -2 10 C-1.54177532 6.53058454 -1.10868317 3.32604951 0 0 Z " fill="#DDDDDD" transform="translate(395,91)"/>
</svg>
